%FSTAX23Y23*%
%MOIN*%
%SFA1B1*%

%IPPOS*%
%ADD71C,0.003937*%
%ADD74C,0.005905*%
%LNflowmeter-1*%
%LPD*%
G54D71*
X01825Y00807D02*
X01864D01*
Y00826*
X01858Y00833*
X01831*
X01825Y00826*
Y00807*
Y00872D02*
Y00846D01*
X01845*
X01838Y00859*
Y00866*
X01845Y00872*
X01858*
X01864Y00866*
Y00853*
X01858Y00846*
X0155Y00807D02*
X01589D01*
Y00826*
X01583Y00833*
X01556*
X0155Y00826*
Y00807*
X01589Y00866D02*
X0155D01*
X0157Y00846*
Y00872*
X01975Y00423D02*
X02014D01*
Y00443*
X02008Y0045*
X01981*
X01975Y00443*
Y00423*
X02014Y00463D02*
Y00476D01*
Y00469*
X01975*
X01981Y00463*
X00342Y0039D02*
Y00429D01*
X00323*
X00316Y00423*
Y00396*
X00323Y0039*
X00342*
X00277Y00429D02*
X00303D01*
X00277Y00403*
Y00396*
X00283Y0039*
X00296*
X00303Y00396*
X00343Y00215D02*
Y00254D01*
X00324*
X00317Y00248*
Y00221*
X00324Y00215*
X00343*
X00304Y00221D02*
X00297Y00215D01*
X00284*
X00278Y00221*
Y00228*
X00284Y00235*
X00291*
X00284*
X00278Y00241*
Y00248*
X00284Y00254*
X00297*
X00304Y00248*
G54D74*
X0094Y00144D02*
X0092D01*
X0093*
Y00095*
X0092Y00085*
X0091*
X00901Y00095*
X0096Y00085D02*
X00979D01*
X00969*
Y00144*
X0096Y00134*
X01009Y00085D02*
X01028D01*
X01019*
Y00144*
X01009Y00134*
X0274Y00129D02*
X0272D01*
X0273*
Y0008*
X0272Y0007*
X0271*
X027Y0008*
X02759Y00119D02*
X02769Y00129D01*
X02789*
X02799Y00119*
Y00109*
X02789Y001*
X02779*
X02789*
X02799Y0009*
Y0008*
X02789Y0007*
X02769*
X02759Y0008*
X02429Y0116D02*
X02449D01*
X02439*
Y01209*
X02449Y01219*
X02459*
X02469Y01209*
X0238Y01219D02*
Y0116D01*
X0241Y0119*
X0237*
X03479Y00769D02*
Y00789D01*
Y00779*
X0343*
X0342Y00789*
Y00799*
X0343Y00809*
X0342Y0071D02*
Y0075D01*
X03459Y0071*
X03469*
X03479Y0072*
Y0074*
X03469Y0075*
X00124Y00359D02*
Y00379D01*
Y00369*
X00075*
X00065Y00379*
Y00389*
X00075Y00399*
X00124Y003D02*
X00114Y0032D01*
X00095Y0034*
X00075*
X00065Y0033*
Y0031*
X00075Y003*
X00085*
X00095Y0031*
Y0034*
M02*