%FSTAX23Y23*%
%MOIN*%
%SFA1B1*%

%IPPOS*%
%ADD12C,0.007874*%
%ADD70C,0.001969*%
%LNflowmeter-1*%
%LPD*%
G54D12*
X00281Y00511D02*
Y00898D01*
X-00015Y00511D02*
X00281D01*
X-00015D02*
Y00898D01*
X00281*
X01135Y00286D02*
X01434D01*
Y00052D02*
Y00286D01*
X01135Y00052D02*
X01434D01*
X01135D02*
Y00286D01*
X0136Y01307D02*
X01659D01*
Y01072D02*
Y01307D01*
X0136Y01072D02*
X01659D01*
X0136D02*
Y01307D01*
X01692Y01073D02*
Y01307D01*
Y01073D02*
X02188D01*
Y01307*
X01692D02*
X02188D01*
X02929Y00047D02*
Y00292D01*
Y00047D02*
X0331D01*
Y00292*
X02929D02*
X0331D01*
X0161Y00436D02*
X01709D01*
Y00603*
X0161D02*
X01709D01*
X0161Y00436D02*
Y00603D01*
X00479Y00264D02*
X0058D01*
X00479Y00095D02*
Y00264D01*
Y00095D02*
X0058D01*
Y00264*
X00939Y0054D02*
X0104D01*
X00939Y0037D02*
Y0054D01*
Y0037D02*
X0104D01*
Y0054*
G54D70*
X00851Y00054D02*
Y00175D01*
Y00054D02*
X01078D01*
Y00175*
X00851D02*
X01078D01*
X02636Y0016D02*
X02863D01*
Y00039D02*
Y0016D01*
X02636Y00039D02*
X02863D01*
X02636D02*
Y0016D01*
X02306Y01129D02*
X02533D01*
X02306D02*
Y0125D01*
X02533*
Y01129D02*
Y0125D01*
X0351Y00446D02*
Y01073D01*
X03389Y00446D02*
X0351D01*
X03389D02*
Y01073D01*
X0351*
X00155Y00236D02*
Y00463D01*
X00034Y00236D02*
X00155D01*
X00034D02*
Y00463D01*
X00155*
X01803Y00745D02*
X01886D01*
Y00934*
X01803D02*
X01886D01*
X01803Y00745D02*
Y00934D01*
X01528Y00745D02*
X01611D01*
Y00934*
X01528D02*
X01611D01*
X01528Y00745D02*
Y00934D01*
X01953Y00355D02*
Y00544D01*
X02036*
Y00355D02*
Y00544D01*
X01953Y00355D02*
X02036D01*
X00215Y00368D02*
X00404D01*
X00215D02*
Y00451D01*
X00404*
Y00368D02*
Y00451D01*
X00216Y00193D02*
X00405D01*
X00216D02*
Y00276D01*
X00405*
Y00193D02*
Y00276D01*
M02*