%FSTAX23Y23*%
%MOIN*%
%SFA1B1*%

%IPPOS*%
%ADD70C,0.001969*%
%ADD71C,0.003937*%
%LNflowmeter-1*%
%LPD*%
G54D70*
X00945Y00115D02*
X00984D01*
X00965Y00095D02*
Y00134D01*
X0275Y0008D02*
Y00119D01*
X0273Y001D02*
X02769D01*
X0242Y0117D02*
Y01209D01*
X024Y0119D02*
X02439D01*
X0343Y0076D02*
X03469D01*
X0345Y0074D02*
Y00779D01*
X00075Y0035D02*
X00114D01*
X00095Y0033D02*
Y00369D01*
X01825Y0084D02*
X01864D01*
X01845Y0082D02*
Y00859D01*
X0155Y0084D02*
X01589D01*
X0157Y0082D02*
Y00859D01*
X01995Y0043D02*
Y00469D01*
X01975Y0045D02*
X02014D01*
X0029Y0041D02*
X00329D01*
X0031Y0039D02*
Y00429D01*
X00291Y00235D02*
X0033D01*
X0031Y00215D02*
Y00254D01*
G54D71*
X0012Y00685D02*
Y00724D01*
X001Y00705D02*
X00139D01*
X01265Y00169D02*
X01304D01*
X01284Y00149D02*
Y00189D01*
X0149Y0119D02*
X01529D01*
X0151Y0117D02*
Y01209D01*
X0194Y0117D02*
Y0121D01*
X01921Y0119D02*
X0196D01*
X0312Y0015D02*
Y00189D01*
X031Y0017D02*
X03139D01*
X0164Y0052D02*
X01679D01*
X0166Y005D02*
Y00539D01*
X0051Y0018D02*
X00549D01*
X0053Y0016D02*
Y00199D01*
X0097Y00455D02*
X01009D01*
X0099Y00435D02*
Y00475D01*
M02*