%FSTAX23Y23*%
%MOIN*%
%SFA1B1*%

%IPPOS*%
%AMD31*
4,1,8,0.011600,-0.018000,0.011600,0.018000,0.005800,0.023800,-0.005800,0.023800,-0.011600,0.018000,-0.011600,-0.018000,-0.005800,-0.023800,0.005800,-0.023800,0.011600,-0.018000,0.0*
1,1,0.011614,0.005800,-0.018000*
1,1,0.011614,0.005800,0.018000*
1,1,0.011614,-0.005800,0.018000*
1,1,0.011614,-0.005800,-0.018000*
%
%AMD33*
4,1,8,0.035800,0.011800,-0.035800,0.011800,-0.038800,0.008900,-0.038800,-0.008900,-0.035800,-0.011800,0.035800,-0.011800,0.038800,-0.008900,0.038800,0.008900,0.035800,0.011800,0.0*
1,1,0.005906,0.035800,0.008900*
1,1,0.005906,-0.035800,0.008900*
1,1,0.005906,-0.035800,-0.008900*
1,1,0.005906,0.035800,-0.008900*
%
%ADD18R,0.043307X0.066929*%
%ADD19R,0.078740X0.047244*%
%ADD20R,0.045275X0.023622*%
%ADD21R,0.045275X0.011811*%
%ADD22R,0.057087X0.045275*%
%ADD23R,0.039764X0.054331*%
%ADD24R,0.054331X0.039764*%
%ADD25R,0.039370X0.053150*%
%ADD26R,0.023228X0.047638*%
%ADD27R,0.061024X0.051181*%
%ADD28R,0.054331X0.036220*%
%ADD29R,0.062992X0.055118*%
%ADD30R,0.059441X0.051421*%
G04~CAMADD=31~8~0.0~0.0~476.4~232.3~58.1~0.0~15~0.0~0.0~0.0~0.0~0~0.0~0.0~0.0~0.0~0~0.0~0.0~0.0~270.0~232.0~476.0*
%ADD31D31*%
%ADD32R,0.061268X0.059236*%
G04~CAMADD=33~8~0.0~0.0~775.6~236.2~29.5~0.0~15~0.0~0.0~0.0~0.0~0~0.0~0.0~0.0~0.0~0~0.0~0.0~0.0~0.0~775.6~236.2*
%ADD33D33*%
%ADD34R,0.055118X0.062992*%
%LNflowmeter-1*%
%LPD*%
G36*
X00605Y00737D02*
X00554D01*
Y00802*
X00605*
Y00737*
G37*
G54D18*
X03169Y00374D03*
X0309D03*
X03011D03*
X02933D03*
X02854D03*
X02775D03*
G54D19*
X03267Y00984D03*
Y00905D03*
Y00826D03*
Y00748D03*
Y00669D03*
Y0059D03*
Y00511D03*
Y00433D03*
X02677D03*
Y00511D03*
Y0059D03*
Y00669D03*
Y00748D03*
Y00826D03*
Y00905D03*
Y00984D03*
G54D20*
X00254Y00579D03*
Y0083D03*
Y00799D03*
Y0061D03*
G54D21*
X00254Y00636D03*
Y00655D03*
Y00675D03*
Y00695D03*
Y00714D03*
Y00734D03*
Y00754D03*
Y00773D03*
G54D22*
X02365Y004D03*
Y00329D03*
X0247Y00674D03*
Y00745D03*
X0236Y00674D03*
Y00745D03*
X0207Y00674D03*
Y00745D03*
X01225Y00725D03*
Y00654D03*
G54D23*
X02477Y00385D03*
X02552D03*
G54D24*
X02155Y00502D03*
Y00427D03*
G54D25*
X00674Y0023D03*
X00745D03*
X01194Y0046D03*
X01265D03*
X00909Y00781D03*
X0098D03*
X0098Y00873D03*
X00909D03*
X0098Y00688D03*
X00909D03*
G54D26*
X00817Y00509D03*
X0078D03*
X00742D03*
Y0041D03*
X00817D03*
X0078D03*
G54D27*
X03276Y00081D03*
X02963D03*
X03276Y00258D03*
X02963D03*
G54D28*
X0171Y00907D03*
Y00832D03*
X01825Y00485D03*
Y0056D03*
X0143Y00907D03*
Y00832D03*
G54D29*
X01845Y0078D03*
Y00899D03*
X0157Y0078D03*
Y00899D03*
X01995Y00509D03*
Y0039D03*
G54D30*
X0166Y00558D03*
Y00481D03*
G54D31*
X02257Y00759D03*
X0222D03*
X02182D03*
Y0066D03*
X02257D03*
X00532Y0041D03*
X0057D03*
X00607D03*
X00532Y00509D03*
X0057D03*
X00607D03*
G54D32*
X0053Y00144D03*
Y00215D03*
X0099Y0042D03*
Y0049D03*
G54D33*
X00482Y00845D03*
Y00795D03*
Y00745D03*
Y00695D03*
X00677D03*
Y00745D03*
Y00795D03*
Y00845D03*
G54D34*
X0025Y0041D03*
X00369D03*
X00251Y00235D03*
X0037D03*
M02*