%FSTAX23Y23*%
%MOIN*%
%SFA1B1*%

%IPPOS*%
%ADD10C,0.005000*%
%ADD12C,0.007874*%
%ADD71C,0.003937*%
%LNflowmeter-1*%
%LPD*%
G36*
X02495Y00729D02*
X02444D01*
Y00749*
X02495*
Y00729*
G37*
G36*
X02385D02*
X02334D01*
Y00749*
X02385*
Y00729*
G37*
G36*
X02095D02*
X02044D01*
Y00749*
X02095*
Y00729*
G37*
G36*
X0125Y00709D02*
X01199D01*
Y00729*
X0125*
Y00709*
G37*
G36*
X02495Y0067D02*
X02444D01*
Y0069*
X02495*
Y0067*
G37*
G36*
X02385D02*
X02334D01*
Y0069*
X02385*
Y0067*
G37*
G36*
X02095D02*
X02044D01*
Y0069*
X02095*
Y0067*
G37*
G36*
X0125Y0065D02*
X01199D01*
Y0067*
X0125*
Y0065*
G37*
G36*
X0239Y00384D02*
X02339D01*
Y00403*
X0239*
Y00384*
G37*
G36*
Y00325D02*
X02339D01*
Y00344*
X0239*
Y00325*
G37*
G54D10*
X02657Y00374D02*
Y01318D01*
Y00374D02*
X03287D01*
Y01318*
X02657D02*
X03287D01*
X02339Y00325D02*
X0239D01*
Y00403*
X02339D02*
X0239D01*
X02339Y00325D02*
Y00403D01*
X02558Y00358D02*
Y00411D01*
X02471Y00358D02*
Y00411D01*
Y00358D02*
X02558D01*
X02471Y00411D02*
X02558D01*
X02128Y00421D02*
X02181D01*
X02128Y00508D02*
X02181D01*
X02128Y00421D02*
Y00508D01*
X02181Y00421D02*
Y00508D01*
X02131Y00263D02*
X02521D01*
Y00037D02*
Y00263D01*
X02131Y00037D02*
X02521D01*
X02131D02*
Y00263D01*
X01647Y00037D02*
Y00263D01*
Y00037D02*
X02037D01*
Y00263*
X01647D02*
X02037D01*
X00837Y00428D02*
Y00491D01*
X00722Y00428D02*
X00837D01*
X00722D02*
Y00491D01*
X00837*
X01683Y00828D02*
Y00911D01*
X01736Y00828D02*
Y00911D01*
X01683Y00828D02*
X01736D01*
X01683Y00911D02*
X01736D01*
X02444Y00749D02*
X02495D01*
X02444Y0067D02*
Y00749D01*
Y0067D02*
X02495D01*
Y00749*
X01851Y00481D02*
Y00563D01*
X01798Y00481D02*
Y00563D01*
X01851*
X01798Y00481D02*
X01851D01*
X01403Y00828D02*
Y00911D01*
X01456Y00828D02*
Y00911D01*
X01403Y00828D02*
X01456D01*
X01403Y00911D02*
X01456D01*
X02162Y00741D02*
X02277D01*
X02162Y00678D02*
X02277D01*
Y00741*
X02162Y00678D02*
Y00741D01*
X02334Y00749D02*
X02385D01*
X02334Y0067D02*
Y00749D01*
Y0067D02*
X02385D01*
Y00749*
X02044Y0067D02*
Y00749D01*
X02095*
Y0067D02*
Y00749D01*
X02044Y0067D02*
X02095D01*
X00501Y0087D02*
X00658D01*
X00501Y00669D02*
X00658D01*
X00501D02*
Y0087D01*
X00658Y00669D02*
Y0087D01*
X00512Y00428D02*
Y00491D01*
Y00428D02*
X00627D01*
Y00491*
X00512D02*
X00627D01*
X0125Y0065D02*
Y00729D01*
X01199Y0065D02*
X0125D01*
X01199D02*
Y00729D01*
X0125*
G54D12*
X02556Y0013D02*
D01*
X02556Y0013*
X02556Y0013*
X02556Y0013*
X02556Y00131*
X02556Y00131*
X02556Y00131*
X02556Y00131*
X02556Y00132*
X02556Y00132*
X02555Y00132*
X02555Y00132*
X02555Y00132*
X02555Y00133*
X02555Y00133*
X02554Y00133*
X02554Y00133*
X02554Y00133*
X02554Y00133*
X02553Y00133*
X02553Y00133*
X02553Y00133*
X02553Y00133*
X02552*
X02552Y00133*
X02552Y00133*
X02552Y00133*
X02551Y00133*
X02551Y00133*
X02551Y00133*
X0255Y00133*
X0255Y00133*
X0255Y00133*
X0255Y00132*
X0255Y00132*
X02549Y00132*
X02549Y00132*
X02549Y00132*
X02549Y00131*
X02549Y00131*
X02549Y00131*
X02549Y00131*
X02549Y0013*
X02549Y0013*
X02549Y0013*
X02549Y0013*
X02549Y00129*
X02549Y00129*
X02549Y00129*
X02549Y00128*
X02549Y00128*
X02549Y00128*
X02549Y00128*
X02549Y00127*
X02549Y00127*
X02549Y00127*
X0255Y00127*
X0255Y00127*
X0255Y00126*
X0255Y00126*
X0255Y00126*
X02551Y00126*
X02551Y00126*
X02551Y00126*
X02552Y00126*
X02552Y00126*
X02552Y00126*
X02552Y00126*
X02553*
X02553Y00126*
X02553Y00126*
X02553Y00126*
X02554Y00126*
X02554Y00126*
X02554Y00126*
X02554Y00126*
X02555Y00126*
X02555Y00126*
X02555Y00127*
X02555Y00127*
X02555Y00127*
X02556Y00127*
X02556Y00127*
X02556Y00128*
X02556Y00128*
X02556Y00128*
X02556Y00128*
X02556Y00129*
X02556Y00129*
X02556Y00129*
X02556Y0013*
X02072Y00129D02*
D01*
X02072Y0013*
X02072Y0013*
X02072Y0013*
X02072Y00131*
X02072Y00131*
X02072Y00131*
X02072Y00131*
X02072Y00132*
X02072Y00132*
X02071Y00132*
X02071Y00132*
X02071Y00132*
X02071Y00133*
X02071Y00133*
X0207Y00133*
X0207Y00133*
X0207Y00133*
X0207Y00133*
X02069Y00133*
X02069Y00133*
X02069Y00133*
X02069Y00133*
X02068*
X02068Y00133*
X02068Y00133*
X02067Y00133*
X02067Y00133*
X02067Y00133*
X02067Y00133*
X02066Y00133*
X02066Y00133*
X02066Y00133*
X02066Y00132*
X02066Y00132*
X02065Y00132*
X02065Y00132*
X02065Y00132*
X02065Y00131*
X02065Y00131*
X02065Y00131*
X02065Y00131*
X02065Y0013*
X02064Y0013*
X02064Y0013*
X02064Y00129*
X02064Y00129*
X02064Y00129*
X02065Y00129*
X02065Y00128*
X02065Y00128*
X02065Y00128*
X02065Y00128*
X02065Y00127*
X02065Y00127*
X02065Y00127*
X02066Y00127*
X02066Y00126*
X02066Y00126*
X02066Y00126*
X02066Y00126*
X02067Y00126*
X02067Y00126*
X02067Y00126*
X02067Y00126*
X02068Y00126*
X02068Y00126*
X02068Y00125*
X02069*
X02069Y00126*
X02069Y00126*
X02069Y00126*
X0207Y00126*
X0207Y00126*
X0207Y00126*
X0207Y00126*
X02071Y00126*
X02071Y00126*
X02071Y00126*
X02071Y00127*
X02071Y00127*
X02072Y00127*
X02072Y00127*
X02072Y00128*
X02072Y00128*
X02072Y00128*
X02072Y00128*
X02072Y00129*
X02072Y00129*
X02072Y00129*
X02072Y00129*
X00821Y0056D02*
D01*
X00821Y0056*
X00821Y00561*
X00821Y00561*
X00821Y00561*
X00821Y00561*
X0082Y00562*
X0082Y00562*
X0082Y00562*
X0082Y00562*
X0082Y00563*
X0082Y00563*
X0082Y00563*
X00819Y00563*
X00819Y00563*
X00819Y00564*
X00819Y00564*
X00818Y00564*
X00818Y00564*
X00818Y00564*
X00818Y00564*
X00817Y00564*
X00817Y00564*
X00817*
X00816Y00564*
X00816Y00564*
X00816Y00564*
X00816Y00564*
X00815Y00564*
X00815Y00564*
X00815Y00564*
X00815Y00563*
X00814Y00563*
X00814Y00563*
X00814Y00563*
X00814Y00563*
X00814Y00562*
X00814Y00562*
X00813Y00562*
X00813Y00562*
X00813Y00561*
X00813Y00561*
X00813Y00561*
X00813Y00561*
X00813Y0056*
X00813Y0056*
X00813Y0056*
X00813Y0056*
X00813Y00559*
X00813Y00559*
X00813Y00559*
X00813Y00558*
X00813Y00558*
X00814Y00558*
X00814Y00558*
X00814Y00558*
X00814Y00557*
X00814Y00557*
X00814Y00557*
X00815Y00557*
X00815Y00557*
X00815Y00557*
X00815Y00556*
X00816Y00556*
X00816Y00556*
X00816Y00556*
X00816Y00556*
X00817Y00556*
X00817*
X00817Y00556*
X00818Y00556*
X00818Y00556*
X00818Y00556*
X00818Y00556*
X00819Y00557*
X00819Y00557*
X00819Y00557*
X00819Y00557*
X0082Y00557*
X0082Y00557*
X0082Y00558*
X0082Y00558*
X0082Y00558*
X0082Y00558*
X0082Y00558*
X00821Y00559*
X00821Y00559*
X00821Y00559*
X00821Y0056*
X00821Y0056*
X00821Y0056*
X02265Y00804D02*
D01*
X02265Y00805*
X02265Y00805*
X02265Y00805*
X02265Y00805*
X02265Y00806*
X02264Y00806*
X02264Y00806*
X02264Y00806*
X02264Y00807*
X02264Y00807*
X02264Y00807*
X02263Y00807*
X02263Y00807*
X02263Y00808*
X02263Y00808*
X02263Y00808*
X02262Y00808*
X02262Y00808*
X02262Y00808*
X02262Y00808*
X02261Y00808*
X02261Y00808*
X02261*
X0226Y00808*
X0226Y00808*
X0226Y00808*
X0226Y00808*
X02259Y00808*
X02259Y00808*
X02259Y00808*
X02259Y00808*
X02258Y00807*
X02258Y00807*
X02258Y00807*
X02258Y00807*
X02258Y00807*
X02257Y00806*
X02257Y00806*
X02257Y00806*
X02257Y00806*
X02257Y00805*
X02257Y00805*
X02257Y00805*
X02257Y00805*
X02257Y00804*
X02257Y00804*
X02257Y00804*
X02257Y00804*
X02257Y00803*
X02257Y00803*
X02257Y00803*
X02257Y00803*
X02257Y00802*
X02258Y00802*
X02258Y00802*
X02258Y00802*
X02258Y00801*
X02258Y00801*
X02259Y00801*
X02259Y00801*
X02259Y00801*
X02259Y00801*
X0226Y00801*
X0226Y00801*
X0226Y00801*
X0226Y008*
X02261Y008*
X02261*
X02261Y008*
X02262Y00801*
X02262Y00801*
X02262Y00801*
X02262Y00801*
X02263Y00801*
X02263Y00801*
X02263Y00801*
X02263Y00801*
X02263Y00801*
X02264Y00802*
X02264Y00802*
X02264Y00802*
X02264Y00802*
X02264Y00803*
X02264Y00803*
X02265Y00803*
X02265Y00803*
X02265Y00804*
X02265Y00804*
X02265Y00804*
X02265Y00804*
X00408Y00868D02*
D01*
X00408Y00868*
X00408Y00869*
X00408Y00869*
X00408Y00869*
X00408Y00869*
X00408Y0087*
X00408Y0087*
X00408Y0087*
X00408Y0087*
X00408Y00871*
X00407Y00871*
X00407Y00871*
X00407Y00871*
X00407Y00871*
X00406Y00872*
X00406Y00872*
X00406Y00872*
X00406Y00872*
X00405Y00872*
X00405Y00872*
X00405Y00872*
X00405Y00872*
X00404*
X00404Y00872*
X00404Y00872*
X00404Y00872*
X00403Y00872*
X00403Y00872*
X00403Y00872*
X00403Y00872*
X00402Y00871*
X00402Y00871*
X00402Y00871*
X00402Y00871*
X00401Y00871*
X00401Y0087*
X00401Y0087*
X00401Y0087*
X00401Y0087*
X00401Y00869*
X00401Y00869*
X00401Y00869*
X00401Y00869*
X00401Y00868*
X00401Y00868*
X00401Y00868*
X00401Y00868*
X00401Y00867*
X00401Y00867*
X00401Y00867*
X00401Y00867*
X00401Y00866*
X00401Y00866*
X00401Y00866*
X00401Y00866*
X00402Y00865*
X00402Y00865*
X00402Y00865*
X00402Y00865*
X00403Y00865*
X00403Y00865*
X00403Y00864*
X00403Y00864*
X00404Y00864*
X00404Y00864*
X00404Y00864*
X00404Y00864*
X00405*
X00405Y00864*
X00405Y00864*
X00405Y00864*
X00406Y00864*
X00406Y00864*
X00406Y00865*
X00406Y00865*
X00407Y00865*
X00407Y00865*
X00407Y00865*
X00407Y00865*
X00408Y00866*
X00408Y00866*
X00408Y00866*
X00408Y00866*
X00408Y00867*
X00408Y00867*
X00408Y00867*
X00408Y00867*
X00408Y00868*
X00408Y00868*
X00408Y00868*
X00611Y00555D02*
D01*
X00611Y00555*
X00611Y00556*
X00611Y00556*
X0061Y00556*
X0061Y00556*
X0061Y00557*
X0061Y00557*
X0061Y00557*
X0061Y00557*
X0061Y00558*
X0061Y00558*
X00609Y00558*
X00609Y00558*
X00609Y00558*
X00609Y00559*
X00608Y00559*
X00608Y00559*
X00608Y00559*
X00608Y00559*
X00607Y00559*
X00607Y00559*
X00607Y00559*
X00607*
X00606Y00559*
X00606Y00559*
X00606Y00559*
X00605Y00559*
X00605Y00559*
X00605Y00559*
X00605Y00559*
X00605Y00558*
X00604Y00558*
X00604Y00558*
X00604Y00558*
X00604Y00558*
X00604Y00557*
X00603Y00557*
X00603Y00557*
X00603Y00557*
X00603Y00556*
X00603Y00556*
X00603Y00556*
X00603Y00556*
X00603Y00555*
X00603Y00555*
X00603Y00555*
X00603Y00555*
X00603Y00554*
X00603Y00554*
X00603Y00554*
X00603Y00553*
X00603Y00553*
X00603Y00553*
X00604Y00553*
X00604Y00553*
X00604Y00552*
X00604Y00552*
X00604Y00552*
X00605Y00552*
X00605Y00552*
X00605Y00552*
X00605Y00551*
X00605Y00551*
X00606Y00551*
X00606Y00551*
X00606Y00551*
X00607Y00551*
X00607*
X00607Y00551*
X00607Y00551*
X00608Y00551*
X00608Y00551*
X00608Y00551*
X00608Y00552*
X00609Y00552*
X00609Y00552*
X00609Y00552*
X00609Y00552*
X0061Y00552*
X0061Y00553*
X0061Y00553*
X0061Y00553*
X0061Y00553*
X0061Y00553*
X0061Y00554*
X0061Y00554*
X00611Y00554*
X00611Y00555*
X00611Y00555*
X00611Y00555*
G54D71*
X00668Y00203D02*
Y00256D01*
X00751Y00203D02*
Y00256D01*
X00668D02*
X00751D01*
X00668Y00203D02*
X00751D01*
X01188Y00486D02*
X01271D01*
X01188Y00433D02*
X01271D01*
X01188D02*
Y00486D01*
X01271Y00433D02*
Y00486D01*
X00903Y00807D02*
X00986D01*
X00903Y00754D02*
X00986D01*
X00903D02*
Y00807D01*
X00986Y00754D02*
Y00807D01*
X00903Y00846D02*
X00985D01*
X00903Y00899D02*
X00985D01*
Y00846D02*
Y00899D01*
X00903Y00846D02*
Y00899D01*
X00903Y00662D02*
X00986D01*
X00903Y00715D02*
X00986D01*
Y00662D02*
Y00715D01*
X00903Y00662D02*
Y00715D01*
M02*