%FSTAX23Y23*%
%MOIN*%
%SFA1B1*%

%IPPOS*%
%ADD9500C,0.012000*%
%ADD9501C,0.035433*%
%ADD9502C,0.039370*%
%ADD9503C,0.043307*%
%ADD9504C,0.125984*%
%ADD9505C,0.043307*%
%LNflowmeter-roundholes-1*%
%LPD*%
G54D9500*
X00421Y00179D03*
X00415Y00359D03*
X00482Y00541D03*
X00482Y00641D03*
X00656Y00508D03*
X00818Y00359D03*
X00785Y0023D03*
X01225Y00597D03*
X01729Y00478D03*
X02064Y0039D03*
X02213Y00502D03*
X02118Y00633D03*
X0247Y00622D03*
X02424Y00372D03*
X0261Y00433D03*
X02771Y0051D03*
Y00589D03*
X0318Y00512D03*
Y0067D03*
X03178Y00748D03*
X03179Y00826D03*
X02774Y0065D03*
X02597Y00825D03*
X02221Y00821D03*
X02007Y00746D03*
X01773Y0073D03*
X01765Y00833D03*
X00981Y00931D03*
X00752Y00893D03*
X00852Y00781D03*
X00852Y0069D03*
X00413Y00795D03*
X00355Y00742D03*
G54D9501*
X01793Y0117D03*
X01891D03*
X0199D03*
X02088D03*
G54D9502*
X01235Y00149D03*
X01334D03*
X01744Y00129D03*
X01842D03*
X0194D03*
X02228Y0013D03*
X02326D03*
X02425D03*
X01559Y01169D03*
X0146D03*
G54D9503*
X00095Y003D03*
Y004D03*
X00915Y00115D03*
X01015D03*
X027Y001D03*
X028D03*
X0345Y0051D03*
Y0061D03*
Y0071D03*
Y0081D03*
Y0091D03*
Y0101D03*
X0247Y0119D03*
X0237D03*
G54D9504*
X00105Y00105D03*
X03435D03*
Y0127D03*
X00105D03*
G54D9505*
X01396Y00227D03*
X01622Y01248D03*
M02*