G04*
G04 #@! TF.GenerationSoftware,Altium Limited,Altium Designer,25.2.1 (25)*
G04*
G04 Layer_Color=16711935*
%FSLAX44Y44*%
%MOMM*%
G71*
G04*
G04 #@! TF.SameCoordinates,151459D2-9B86-48AD-89DC-2ABF3E981002*
G04*
G04*
G04 #@! TF.FilePolarity,Positive*
G04*
G01*
G75*
%ADD12C,0.2000*%
G36*
X35754Y178304D02*
X35746D01*
X35721D01*
X35688D01*
X35638Y178295D01*
X35579Y178287D01*
X35513Y178279D01*
X35354Y178262D01*
X35188Y178229D01*
X35021Y178179D01*
X34871Y178120D01*
X34813Y178079D01*
X34755Y178037D01*
X34746Y178029D01*
X34713Y177987D01*
X34671Y177937D01*
X34621Y177854D01*
X34571Y177762D01*
X34530Y177645D01*
X34496Y177504D01*
X34488Y177354D01*
Y177304D01*
X34496Y177237D01*
X34505Y177162D01*
X34521Y177079D01*
X34546Y176987D01*
X34580Y176896D01*
X34630Y176804D01*
X34638Y176796D01*
X34655Y176762D01*
X34688Y176729D01*
X34738Y176679D01*
X34796Y176621D01*
X34863Y176571D01*
X34938Y176521D01*
X35029Y176487D01*
X35038Y176479D01*
X35080Y176471D01*
X35138Y176454D01*
X35221Y176437D01*
X35338Y176421D01*
X35471Y176412D01*
X35638Y176396D01*
X35829D01*
X40245D01*
Y175546D01*
X35879D01*
X35871D01*
X35846D01*
X35804D01*
X35746D01*
X35679Y175554D01*
X35604D01*
X35513Y175563D01*
X35421Y175571D01*
X35221Y175596D01*
X35013Y175629D01*
X34813Y175679D01*
X34713Y175713D01*
X34630Y175746D01*
X34621D01*
X34613Y175754D01*
X34588Y175763D01*
X34555Y175779D01*
X34480Y175829D01*
X34380Y175896D01*
X34271Y175979D01*
X34163Y176087D01*
X34055Y176213D01*
X33955Y176362D01*
Y176371D01*
X33946Y176379D01*
X33938Y176404D01*
X33921Y176437D01*
X33880Y176521D01*
X33846Y176646D01*
X33805Y176787D01*
X33763Y176954D01*
X33738Y177146D01*
X33730Y177354D01*
Y177437D01*
X33738Y177495D01*
X33747Y177562D01*
X33755Y177645D01*
X33772Y177737D01*
X33788Y177829D01*
X33846Y178037D01*
X33888Y178145D01*
X33938Y178254D01*
X33988Y178362D01*
X34055Y178462D01*
X34130Y178554D01*
X34213Y178645D01*
X34221Y178654D01*
X34238Y178662D01*
X34263Y178687D01*
X34305Y178712D01*
X34355Y178745D01*
X34413Y178787D01*
X34488Y178829D01*
X34571Y178870D01*
X34671Y178904D01*
X34780Y178945D01*
X34896Y178979D01*
X35021Y179012D01*
X35163Y179037D01*
X35313Y179062D01*
X35471Y179070D01*
X35646D01*
X35754Y178304D01*
D02*
G37*
G36*
X40161Y170289D02*
X39545D01*
X39537Y170297D01*
X39512Y170314D01*
X39478Y170347D01*
X39428Y170397D01*
X39362Y170447D01*
X39278Y170514D01*
X39187Y170589D01*
X39087Y170672D01*
X38970Y170764D01*
X38837Y170856D01*
X38695Y170956D01*
X38537Y171064D01*
X38379Y171172D01*
X38195Y171280D01*
X38012Y171389D01*
X37812Y171505D01*
X37804Y171514D01*
X37762Y171530D01*
X37704Y171564D01*
X37629Y171605D01*
X37529Y171655D01*
X37412Y171705D01*
X37279Y171772D01*
X37129Y171839D01*
X36971Y171914D01*
X36796Y171989D01*
X36612Y172064D01*
X36421Y172139D01*
X36021Y172288D01*
X35596Y172422D01*
X35588D01*
X35563Y172430D01*
X35513Y172447D01*
X35454Y172463D01*
X35379Y172480D01*
X35288Y172505D01*
X35188Y172522D01*
X35071Y172547D01*
X34946Y172572D01*
X34813Y172605D01*
X34663Y172630D01*
X34513Y172647D01*
X34188Y172688D01*
X33838Y172722D01*
Y173530D01*
X33846D01*
X33872D01*
X33913D01*
X33972Y173521D01*
X34046D01*
X34130Y173513D01*
X34230Y173505D01*
X34346Y173488D01*
X34471Y173472D01*
X34613Y173455D01*
X34763Y173430D01*
X34921Y173405D01*
X35088Y173372D01*
X35271Y173330D01*
X35454Y173288D01*
X35654Y173238D01*
X35671D01*
X35704Y173222D01*
X35763Y173205D01*
X35838Y173188D01*
X35938Y173155D01*
X36046Y173122D01*
X36171Y173080D01*
X36312Y173030D01*
X36471Y172980D01*
X36629Y172913D01*
X36979Y172780D01*
X37346Y172613D01*
X37720Y172430D01*
X37729Y172422D01*
X37762Y172405D01*
X37820Y172380D01*
X37887Y172339D01*
X37970Y172288D01*
X38070Y172230D01*
X38187Y172164D01*
X38304Y172089D01*
X38570Y171922D01*
X38853Y171730D01*
X39137Y171514D01*
X39403Y171297D01*
Y174430D01*
X40161D01*
Y170289D01*
D02*
G37*
G36*
X329860Y45245D02*
Y45237D01*
Y45212D01*
Y45170D01*
Y45112D01*
X329852Y45045D01*
Y44970D01*
X329843Y44879D01*
X329835Y44787D01*
X329810Y44587D01*
X329777Y44379D01*
X329727Y44179D01*
X329693Y44079D01*
X329660Y43996D01*
Y43987D01*
X329652Y43979D01*
X329643Y43954D01*
X329627Y43921D01*
X329577Y43846D01*
X329510Y43746D01*
X329427Y43637D01*
X329318Y43529D01*
X329193Y43421D01*
X329044Y43321D01*
X329035D01*
X329027Y43313D01*
X329002Y43304D01*
X328969Y43288D01*
X328885Y43246D01*
X328760Y43212D01*
X328619Y43171D01*
X328452Y43129D01*
X328260Y43104D01*
X328052Y43096D01*
X327969D01*
X327910Y43104D01*
X327844Y43113D01*
X327761Y43121D01*
X327669Y43137D01*
X327577Y43154D01*
X327369Y43212D01*
X327261Y43254D01*
X327152Y43304D01*
X327044Y43354D01*
X326944Y43421D01*
X326852Y43496D01*
X326761Y43579D01*
X326752Y43587D01*
X326744Y43604D01*
X326719Y43629D01*
X326694Y43671D01*
X326661Y43721D01*
X326619Y43779D01*
X326577Y43854D01*
X326536Y43937D01*
X326502Y44037D01*
X326461Y44146D01*
X326427Y44262D01*
X326394Y44387D01*
X326369Y44529D01*
X326344Y44679D01*
X326336Y44837D01*
Y45012D01*
X327102Y45120D01*
Y45112D01*
Y45087D01*
Y45054D01*
X327111Y45004D01*
X327119Y44945D01*
X327127Y44879D01*
X327144Y44721D01*
X327177Y44554D01*
X327227Y44387D01*
X327286Y44237D01*
X327327Y44179D01*
X327369Y44121D01*
X327377Y44112D01*
X327419Y44079D01*
X327469Y44037D01*
X327552Y43987D01*
X327644Y43937D01*
X327761Y43896D01*
X327902Y43862D01*
X328052Y43854D01*
X328102D01*
X328169Y43862D01*
X328244Y43871D01*
X328327Y43887D01*
X328419Y43912D01*
X328510Y43946D01*
X328602Y43996D01*
X328610Y44004D01*
X328644Y44021D01*
X328677Y44054D01*
X328727Y44104D01*
X328785Y44162D01*
X328835Y44229D01*
X328885Y44304D01*
X328918Y44395D01*
X328927Y44404D01*
X328935Y44446D01*
X328952Y44504D01*
X328969Y44587D01*
X328985Y44704D01*
X328993Y44837D01*
X329010Y45004D01*
Y45195D01*
Y49611D01*
X329860D01*
Y45245D01*
D02*
G37*
G36*
X333884Y43204D02*
X333101D01*
Y48211D01*
X333084Y48203D01*
X333051Y48170D01*
X332984Y48111D01*
X332901Y48045D01*
X332793Y47961D01*
X332659Y47870D01*
X332518Y47770D01*
X332351Y47670D01*
X332343D01*
X332334Y47661D01*
X332309Y47645D01*
X332276Y47628D01*
X332184Y47578D01*
X332076Y47520D01*
X331951Y47453D01*
X331810Y47386D01*
X331668Y47320D01*
X331526Y47262D01*
Y48028D01*
X331535D01*
X331559Y48045D01*
X331593Y48061D01*
X331634Y48086D01*
X331693Y48111D01*
X331759Y48153D01*
X331918Y48236D01*
X332093Y48344D01*
X332293Y48478D01*
X332484Y48619D01*
X332676Y48778D01*
X332684Y48786D01*
X332701Y48794D01*
X332726Y48819D01*
X332759Y48853D01*
X332842Y48936D01*
X332951Y49053D01*
X333059Y49178D01*
X333176Y49328D01*
X333284Y49478D01*
X333376Y49636D01*
X333884D01*
Y43204D01*
D02*
G37*
G36*
X338116Y49627D02*
X338166D01*
X338291Y49611D01*
X338433Y49586D01*
X338583Y49544D01*
X338741Y49494D01*
X338891Y49428D01*
X338899D01*
X338908Y49419D01*
X338958Y49386D01*
X339024Y49344D01*
X339116Y49278D01*
X339216Y49186D01*
X339324Y49086D01*
X339432Y48969D01*
X339533Y48828D01*
Y48819D01*
X339541Y48811D01*
X339557Y48786D01*
X339574Y48761D01*
X339616Y48678D01*
X339674Y48561D01*
X339741Y48419D01*
X339807Y48261D01*
X339866Y48070D01*
X339924Y47870D01*
Y47861D01*
X339932Y47845D01*
X339941Y47811D01*
X339949Y47770D01*
X339957Y47711D01*
X339974Y47645D01*
X339982Y47561D01*
X339999Y47470D01*
X340016Y47370D01*
X340024Y47253D01*
X340041Y47137D01*
X340049Y46995D01*
X340057Y46853D01*
X340066Y46703D01*
X340074Y46537D01*
Y46362D01*
Y46345D01*
Y46312D01*
Y46253D01*
Y46170D01*
X340066Y46078D01*
Y45970D01*
X340057Y45845D01*
X340049Y45712D01*
X340016Y45420D01*
X339974Y45112D01*
X339916Y44812D01*
X339882Y44671D01*
X339841Y44537D01*
Y44529D01*
X339832Y44504D01*
X339816Y44471D01*
X339799Y44420D01*
X339774Y44362D01*
X339741Y44296D01*
X339666Y44146D01*
X339566Y43971D01*
X339449Y43796D01*
X339308Y43621D01*
X339141Y43471D01*
X339133D01*
X339124Y43454D01*
X339091Y43438D01*
X339058Y43412D01*
X339016Y43387D01*
X338958Y43354D01*
X338899Y43321D01*
X338824Y43288D01*
X338658Y43212D01*
X338458Y43154D01*
X338233Y43113D01*
X338108Y43104D01*
X337983Y43096D01*
X337941D01*
X337891Y43104D01*
X337833D01*
X337750Y43113D01*
X337666Y43129D01*
X337566Y43154D01*
X337458Y43179D01*
X337341Y43212D01*
X337225Y43254D01*
X337100Y43313D01*
X336975Y43371D01*
X336858Y43446D01*
X336741Y43537D01*
X336633Y43637D01*
X336525Y43754D01*
X336517Y43762D01*
X336500Y43796D01*
X336467Y43837D01*
X336425Y43904D01*
X336383Y43996D01*
X336325Y44104D01*
X336275Y44229D01*
X336217Y44379D01*
X336158Y44554D01*
X336100Y44745D01*
X336042Y44954D01*
X336000Y45195D01*
X335958Y45454D01*
X335925Y45729D01*
X335908Y46037D01*
X335900Y46362D01*
Y46378D01*
Y46412D01*
Y46470D01*
Y46553D01*
X335908Y46645D01*
X335917Y46753D01*
Y46878D01*
X335933Y47011D01*
X335958Y47303D01*
X336000Y47611D01*
X336058Y47911D01*
X336092Y48053D01*
X336133Y48186D01*
Y48195D01*
X336142Y48220D01*
X336158Y48253D01*
X336175Y48303D01*
X336200Y48361D01*
X336233Y48428D01*
X336308Y48586D01*
X336408Y48753D01*
X336525Y48936D01*
X336667Y49111D01*
X336825Y49261D01*
X336833Y49269D01*
X336850Y49278D01*
X336875Y49294D01*
X336908Y49319D01*
X336950Y49344D01*
X337008Y49378D01*
X337066Y49411D01*
X337141Y49453D01*
X337308Y49519D01*
X337508Y49577D01*
X337733Y49619D01*
X337858Y49636D01*
X338066D01*
X338116Y49627D01*
D02*
G37*
G36*
X387064Y304409D02*
Y304401D01*
Y304376D01*
Y304334D01*
Y304276D01*
X387056Y304209D01*
Y304134D01*
X387047Y304043D01*
X387039Y303951D01*
X387014Y303751D01*
X386981Y303543D01*
X386931Y303343D01*
X386897Y303243D01*
X386864Y303160D01*
Y303151D01*
X386856Y303143D01*
X386847Y303118D01*
X386831Y303085D01*
X386781Y303010D01*
X386714Y302910D01*
X386631Y302801D01*
X386522Y302693D01*
X386398Y302585D01*
X386247Y302485D01*
X386239D01*
X386231Y302477D01*
X386206Y302468D01*
X386172Y302451D01*
X386089Y302410D01*
X385964Y302376D01*
X385823Y302335D01*
X385656Y302293D01*
X385464Y302268D01*
X385256Y302260D01*
X385173D01*
X385115Y302268D01*
X385048Y302276D01*
X384964Y302285D01*
X384873Y302302D01*
X384781Y302318D01*
X384573Y302376D01*
X384465Y302418D01*
X384356Y302468D01*
X384248Y302518D01*
X384148Y302585D01*
X384056Y302660D01*
X383965Y302743D01*
X383956Y302751D01*
X383948Y302768D01*
X383923Y302793D01*
X383898Y302835D01*
X383865Y302885D01*
X383823Y302943D01*
X383782Y303018D01*
X383740Y303101D01*
X383707Y303201D01*
X383665Y303310D01*
X383632Y303426D01*
X383598Y303551D01*
X383573Y303693D01*
X383548Y303843D01*
X383540Y304001D01*
Y304176D01*
X384306Y304284D01*
Y304276D01*
Y304251D01*
Y304218D01*
X384315Y304168D01*
X384323Y304109D01*
X384331Y304043D01*
X384348Y303885D01*
X384381Y303718D01*
X384431Y303551D01*
X384490Y303401D01*
X384531Y303343D01*
X384573Y303285D01*
X384581Y303276D01*
X384623Y303243D01*
X384673Y303201D01*
X384756Y303151D01*
X384848Y303101D01*
X384964Y303060D01*
X385106Y303026D01*
X385256Y303018D01*
X385306D01*
X385373Y303026D01*
X385448Y303035D01*
X385531Y303051D01*
X385623Y303076D01*
X385714Y303110D01*
X385806Y303160D01*
X385814Y303168D01*
X385848Y303185D01*
X385881Y303218D01*
X385931Y303268D01*
X385989Y303326D01*
X386039Y303393D01*
X386089Y303468D01*
X386123Y303559D01*
X386131Y303568D01*
X386139Y303610D01*
X386156Y303668D01*
X386172Y303751D01*
X386189Y303868D01*
X386198Y304001D01*
X386214Y304168D01*
Y304359D01*
Y308775D01*
X387064D01*
Y304409D01*
D02*
G37*
G36*
X391088Y302368D02*
X390305D01*
Y307375D01*
X390288Y307367D01*
X390255Y307334D01*
X390188Y307275D01*
X390105Y307209D01*
X389997Y307125D01*
X389863Y307034D01*
X389722Y306934D01*
X389555Y306834D01*
X389547D01*
X389538Y306825D01*
X389513Y306809D01*
X389480Y306792D01*
X389388Y306742D01*
X389280Y306684D01*
X389155Y306617D01*
X389013Y306550D01*
X388872Y306484D01*
X388730Y306425D01*
Y307192D01*
X388739D01*
X388764Y307209D01*
X388797Y307225D01*
X388839Y307250D01*
X388897Y307275D01*
X388964Y307317D01*
X389122Y307400D01*
X389297Y307509D01*
X389497Y307642D01*
X389688Y307784D01*
X389880Y307942D01*
X389888Y307950D01*
X389905Y307958D01*
X389930Y307983D01*
X389963Y308017D01*
X390047Y308100D01*
X390155Y308217D01*
X390263Y308342D01*
X390380Y308492D01*
X390488Y308642D01*
X390580Y308800D01*
X391088D01*
Y302368D01*
D02*
G37*
G36*
X496484Y304579D02*
Y304571D01*
Y304546D01*
Y304504D01*
Y304446D01*
X496476Y304379D01*
Y304304D01*
X496467Y304213D01*
X496459Y304121D01*
X496434Y303921D01*
X496401Y303713D01*
X496351Y303513D01*
X496317Y303413D01*
X496284Y303330D01*
Y303321D01*
X496276Y303313D01*
X496267Y303288D01*
X496251Y303255D01*
X496201Y303180D01*
X496134Y303080D01*
X496051Y302971D01*
X495942Y302863D01*
X495817Y302755D01*
X495667Y302655D01*
X495659D01*
X495651Y302647D01*
X495626Y302638D01*
X495592Y302621D01*
X495509Y302580D01*
X495384Y302547D01*
X495243Y302505D01*
X495076Y302463D01*
X494884Y302438D01*
X494676Y302430D01*
X494593D01*
X494534Y302438D01*
X494468Y302446D01*
X494384Y302455D01*
X494293Y302472D01*
X494201Y302488D01*
X493993Y302547D01*
X493885Y302588D01*
X493776Y302638D01*
X493668Y302688D01*
X493568Y302755D01*
X493476Y302830D01*
X493385Y302913D01*
X493376Y302921D01*
X493368Y302938D01*
X493343Y302963D01*
X493318Y303005D01*
X493285Y303055D01*
X493243Y303113D01*
X493201Y303188D01*
X493160Y303271D01*
X493126Y303371D01*
X493085Y303480D01*
X493051Y303596D01*
X493018Y303721D01*
X492993Y303863D01*
X492968Y304013D01*
X492960Y304171D01*
Y304346D01*
X493726Y304454D01*
Y304446D01*
Y304421D01*
Y304388D01*
X493735Y304338D01*
X493743Y304279D01*
X493751Y304213D01*
X493768Y304055D01*
X493801Y303888D01*
X493851Y303721D01*
X493910Y303571D01*
X493951Y303513D01*
X493993Y303455D01*
X494001Y303446D01*
X494043Y303413D01*
X494093Y303371D01*
X494176Y303321D01*
X494268Y303271D01*
X494384Y303230D01*
X494526Y303196D01*
X494676Y303188D01*
X494726D01*
X494793Y303196D01*
X494868Y303205D01*
X494951Y303221D01*
X495043Y303246D01*
X495134Y303280D01*
X495226Y303330D01*
X495234Y303338D01*
X495268Y303355D01*
X495301Y303388D01*
X495351Y303438D01*
X495409Y303496D01*
X495459Y303563D01*
X495509Y303638D01*
X495542Y303729D01*
X495551Y303738D01*
X495559Y303780D01*
X495576Y303838D01*
X495592Y303921D01*
X495609Y304038D01*
X495617Y304171D01*
X495634Y304338D01*
Y304529D01*
Y308945D01*
X496484D01*
Y304579D01*
D02*
G37*
G36*
X499666Y308962D02*
X499716D01*
X499783Y308953D01*
X499933Y308928D01*
X500108Y308887D01*
X500300Y308828D01*
X500500Y308745D01*
X500700Y308628D01*
X500708D01*
X500725Y308612D01*
X500750Y308595D01*
X500783Y308570D01*
X500874Y308487D01*
X500991Y308387D01*
X501116Y308245D01*
X501249Y308087D01*
X501374Y307895D01*
X501483Y307670D01*
Y307662D01*
X501491Y307645D01*
X501508Y307604D01*
X501524Y307554D01*
X501549Y307487D01*
X501566Y307412D01*
X501591Y307320D01*
X501624Y307212D01*
X501649Y307087D01*
X501674Y306954D01*
X501691Y306812D01*
X501716Y306646D01*
X501733Y306471D01*
X501749Y306287D01*
X501758Y306087D01*
Y305871D01*
Y305854D01*
Y305821D01*
Y305754D01*
Y305671D01*
X501749Y305562D01*
X501741Y305446D01*
X501733Y305312D01*
X501724Y305163D01*
X501708Y305012D01*
X501691Y304854D01*
X501649Y304521D01*
X501583Y304204D01*
X501541Y304055D01*
X501491Y303913D01*
Y303904D01*
X501483Y303880D01*
X501466Y303846D01*
X501441Y303796D01*
X501416Y303729D01*
X501383Y303663D01*
X501291Y303505D01*
X501183Y303321D01*
X501041Y303138D01*
X500883Y302963D01*
X500691Y302805D01*
X500683D01*
X500666Y302788D01*
X500641Y302771D01*
X500600Y302747D01*
X500550Y302722D01*
X500491Y302688D01*
X500416Y302655D01*
X500341Y302621D01*
X500158Y302547D01*
X499950Y302488D01*
X499716Y302446D01*
X499591Y302438D01*
X499458Y302430D01*
X499383D01*
X499333Y302438D01*
X499267Y302446D01*
X499200Y302455D01*
X499117Y302463D01*
X499025Y302480D01*
X498833Y302530D01*
X498625Y302605D01*
X498525Y302655D01*
X498425Y302713D01*
X498325Y302771D01*
X498233Y302846D01*
X498225Y302855D01*
X498217Y302863D01*
X498192Y302888D01*
X498158Y302921D01*
X498117Y302963D01*
X498075Y303021D01*
X498034Y303080D01*
X497984Y303146D01*
X497934Y303230D01*
X497884Y303313D01*
X497842Y303413D01*
X497792Y303521D01*
X497750Y303630D01*
X497717Y303755D01*
X497692Y303880D01*
X497667Y304021D01*
X498425Y304079D01*
Y304071D01*
X498433Y304055D01*
Y304030D01*
X498442Y303996D01*
X498467Y303896D01*
X498508Y303788D01*
X498550Y303655D01*
X498617Y303530D01*
X498692Y303413D01*
X498783Y303313D01*
X498800Y303305D01*
X498833Y303280D01*
X498892Y303238D01*
X498975Y303196D01*
X499075Y303155D01*
X499192Y303113D01*
X499333Y303088D01*
X499483Y303080D01*
X499542D01*
X499608Y303088D01*
X499700Y303096D01*
X499791Y303121D01*
X499900Y303146D01*
X500008Y303188D01*
X500116Y303238D01*
X500125Y303246D01*
X500166Y303271D01*
X500216Y303305D01*
X500275Y303355D01*
X500350Y303421D01*
X500425Y303496D01*
X500500Y303580D01*
X500566Y303680D01*
X500575Y303696D01*
X500600Y303729D01*
X500625Y303796D01*
X500666Y303880D01*
X500716Y303988D01*
X500766Y304113D01*
X500816Y304263D01*
X500858Y304429D01*
Y304438D01*
X500866Y304454D01*
Y304479D01*
X500874Y304513D01*
X500883Y304554D01*
X500891Y304604D01*
X500916Y304729D01*
X500941Y304871D01*
X500958Y305037D01*
X500966Y305212D01*
X500975Y305396D01*
Y305404D01*
Y305437D01*
Y305487D01*
Y305554D01*
X500966Y305537D01*
X500933Y305496D01*
X500874Y305421D01*
X500799Y305338D01*
X500708Y305238D01*
X500600Y305138D01*
X500466Y305037D01*
X500325Y304946D01*
X500316D01*
X500308Y304938D01*
X500283Y304921D01*
X500250Y304913D01*
X500175Y304871D01*
X500058Y304829D01*
X499933Y304788D01*
X499783Y304746D01*
X499617Y304721D01*
X499441Y304713D01*
X499367D01*
X499308Y304721D01*
X499242Y304729D01*
X499158Y304746D01*
X499075Y304763D01*
X498975Y304788D01*
X498875Y304813D01*
X498767Y304854D01*
X498658Y304896D01*
X498542Y304954D01*
X498425Y305021D01*
X498317Y305096D01*
X498209Y305187D01*
X498100Y305287D01*
X498092Y305296D01*
X498075Y305312D01*
X498050Y305346D01*
X498017Y305396D01*
X497975Y305446D01*
X497925Y305521D01*
X497875Y305604D01*
X497825Y305696D01*
X497775Y305796D01*
X497725Y305912D01*
X497675Y306037D01*
X497634Y306171D01*
X497600Y306312D01*
X497575Y306471D01*
X497559Y306629D01*
X497550Y306804D01*
Y306812D01*
Y306845D01*
Y306895D01*
X497559Y306962D01*
X497567Y307045D01*
X497584Y307145D01*
X497600Y307254D01*
X497625Y307362D01*
X497692Y307612D01*
X497734Y307745D01*
X497792Y307878D01*
X497859Y308003D01*
X497934Y308137D01*
X498017Y308253D01*
X498117Y308370D01*
X498125Y308378D01*
X498142Y308395D01*
X498175Y308428D01*
X498217Y308462D01*
X498275Y308512D01*
X498342Y308562D01*
X498425Y308612D01*
X498517Y308670D01*
X498608Y308728D01*
X498725Y308778D01*
X498842Y308828D01*
X498967Y308878D01*
X499100Y308911D01*
X499250Y308945D01*
X499400Y308962D01*
X499558Y308970D01*
X499617D01*
X499666Y308962D01*
D02*
G37*
G36*
X795154Y49795D02*
X795221D01*
X795304Y49787D01*
X795396Y49778D01*
X795587Y49745D01*
X795796Y49703D01*
X796012Y49645D01*
X796221Y49570D01*
X796229D01*
X796246Y49562D01*
X796271Y49545D01*
X796312Y49528D01*
X796412Y49470D01*
X796529Y49395D01*
X796671Y49303D01*
X796804Y49187D01*
X796945Y49045D01*
X797062Y48887D01*
Y48878D01*
X797079Y48870D01*
X797087Y48845D01*
X797112Y48812D01*
X797129Y48770D01*
X797154Y48720D01*
X797212Y48595D01*
X797270Y48445D01*
X797320Y48279D01*
X797362Y48087D01*
X797379Y47887D01*
X796562Y47829D01*
Y47837D01*
Y47854D01*
X796554Y47887D01*
X796545Y47929D01*
X796537Y47979D01*
X796520Y48037D01*
X796479Y48170D01*
X796421Y48312D01*
X796346Y48462D01*
X796246Y48612D01*
X796112Y48737D01*
X796096Y48753D01*
X796071Y48762D01*
X796046Y48787D01*
X796004Y48812D01*
X795954Y48837D01*
X795896Y48862D01*
X795837Y48895D01*
X795762Y48920D01*
X795679Y48945D01*
X795587Y48970D01*
X795487Y48995D01*
X795379Y49020D01*
X795263Y49028D01*
X795137Y49045D01*
X794879D01*
X794813Y49037D01*
X794746Y49028D01*
X794579Y49012D01*
X794396Y48978D01*
X794213Y48928D01*
X794038Y48853D01*
X793954Y48812D01*
X793888Y48762D01*
X793871Y48745D01*
X793829Y48712D01*
X793780Y48653D01*
X793713Y48570D01*
X793646Y48470D01*
X793596Y48354D01*
X793555Y48220D01*
X793538Y48079D01*
Y48062D01*
Y48020D01*
X793555Y47962D01*
X793571Y47879D01*
X793596Y47787D01*
X793638Y47695D01*
X793696Y47604D01*
X793780Y47512D01*
X793796Y47504D01*
X793813Y47487D01*
X793838Y47479D01*
X793871Y47454D01*
X793913Y47429D01*
X793971Y47404D01*
X794029Y47379D01*
X794113Y47345D01*
X794204Y47304D01*
X794304Y47270D01*
X794421Y47229D01*
X794554Y47187D01*
X794704Y47146D01*
X794871Y47104D01*
X795054Y47062D01*
X795062D01*
X795096Y47054D01*
X795154Y47037D01*
X795221Y47021D01*
X795304Y47004D01*
X795404Y46979D01*
X795504Y46954D01*
X795621Y46921D01*
X795854Y46862D01*
X796087Y46796D01*
X796196Y46754D01*
X796304Y46721D01*
X796395Y46687D01*
X796470Y46654D01*
X796479D01*
X796496Y46646D01*
X796520Y46629D01*
X796562Y46604D01*
X796662Y46554D01*
X796787Y46479D01*
X796920Y46379D01*
X797054Y46271D01*
X797187Y46137D01*
X797295Y45996D01*
Y45988D01*
X797304Y45979D01*
X797320Y45954D01*
X797337Y45929D01*
X797379Y45846D01*
X797437Y45738D01*
X797487Y45604D01*
X797529Y45446D01*
X797562Y45279D01*
X797570Y45088D01*
Y45079D01*
Y45063D01*
Y45038D01*
X797562Y45004D01*
Y44954D01*
X797554Y44904D01*
X797537Y44780D01*
X797495Y44630D01*
X797445Y44471D01*
X797370Y44296D01*
X797270Y44130D01*
Y44121D01*
X797254Y44113D01*
X797237Y44088D01*
X797220Y44055D01*
X797145Y43971D01*
X797054Y43871D01*
X796937Y43763D01*
X796795Y43646D01*
X796620Y43530D01*
X796429Y43430D01*
X796421D01*
X796404Y43422D01*
X796370Y43405D01*
X796337Y43388D01*
X796279Y43372D01*
X796221Y43355D01*
X796154Y43330D01*
X796071Y43305D01*
X795896Y43263D01*
X795687Y43222D01*
X795454Y43188D01*
X795204Y43180D01*
X795121D01*
X795062Y43188D01*
X794988D01*
X794896Y43197D01*
X794804Y43205D01*
X794696Y43213D01*
X794471Y43238D01*
X794221Y43288D01*
X793979Y43347D01*
X793746Y43430D01*
X793738D01*
X793721Y43438D01*
X793688Y43455D01*
X793646Y43480D01*
X793605Y43505D01*
X793546Y43538D01*
X793413Y43621D01*
X793263Y43730D01*
X793113Y43863D01*
X792963Y44021D01*
X792830Y44196D01*
Y44205D01*
X792813Y44221D01*
X792796Y44246D01*
X792780Y44288D01*
X792755Y44338D01*
X792721Y44388D01*
X792697Y44454D01*
X792663Y44530D01*
X792597Y44704D01*
X792538Y44896D01*
X792496Y45121D01*
X792480Y45354D01*
X793280Y45421D01*
Y45413D01*
Y45396D01*
X793288Y45371D01*
Y45338D01*
X793305Y45254D01*
X793330Y45138D01*
X793363Y45013D01*
X793413Y44879D01*
X793471Y44746D01*
X793538Y44621D01*
X793546Y44605D01*
X793580Y44571D01*
X793630Y44513D01*
X793696Y44446D01*
X793788Y44363D01*
X793896Y44280D01*
X794029Y44196D01*
X794179Y44121D01*
X794188D01*
X794196Y44113D01*
X794221Y44105D01*
X794254Y44096D01*
X794296Y44080D01*
X794346Y44063D01*
X794471Y44030D01*
X794613Y43996D01*
X794779Y43963D01*
X794963Y43946D01*
X795163Y43938D01*
X795246D01*
X795338Y43946D01*
X795454Y43955D01*
X795579Y43971D01*
X795729Y43996D01*
X795871Y44030D01*
X796012Y44080D01*
X796021D01*
X796029Y44088D01*
X796071Y44105D01*
X796137Y44138D01*
X796221Y44180D01*
X796312Y44238D01*
X796404Y44305D01*
X796496Y44380D01*
X796571Y44471D01*
X796579Y44479D01*
X796596Y44513D01*
X796629Y44571D01*
X796662Y44638D01*
X796695Y44721D01*
X796729Y44813D01*
X796745Y44913D01*
X796754Y45021D01*
Y45038D01*
Y45071D01*
X796745Y45129D01*
X796729Y45196D01*
X796712Y45279D01*
X796679Y45371D01*
X796629Y45463D01*
X796571Y45546D01*
X796562Y45554D01*
X796537Y45588D01*
X796496Y45629D01*
X796437Y45679D01*
X796354Y45738D01*
X796254Y45796D01*
X796137Y45862D01*
X795996Y45921D01*
X795979Y45929D01*
X795946Y45938D01*
X795912Y45954D01*
X795871Y45963D01*
X795821Y45979D01*
X795754Y45996D01*
X795687Y46021D01*
X795604Y46038D01*
X795512Y46062D01*
X795404Y46096D01*
X795287Y46121D01*
X795154Y46154D01*
X795013Y46187D01*
X794854Y46229D01*
X794846D01*
X794813Y46237D01*
X794771Y46254D01*
X794713Y46262D01*
X794638Y46287D01*
X794563Y46304D01*
X794371Y46362D01*
X794171Y46421D01*
X793963Y46496D01*
X793780Y46562D01*
X793696Y46604D01*
X793621Y46637D01*
X793613D01*
X793605Y46646D01*
X793580Y46662D01*
X793546Y46679D01*
X793463Y46729D01*
X793363Y46804D01*
X793255Y46887D01*
X793138Y46987D01*
X793030Y47104D01*
X792938Y47229D01*
Y47237D01*
X792930Y47245D01*
X792905Y47295D01*
X792871Y47362D01*
X792830Y47462D01*
X792788Y47579D01*
X792755Y47720D01*
X792730Y47870D01*
X792721Y48029D01*
Y48037D01*
Y48054D01*
Y48079D01*
X792730Y48112D01*
X792738Y48204D01*
X792755Y48329D01*
X792788Y48470D01*
X792838Y48620D01*
X792905Y48778D01*
X792996Y48937D01*
Y48945D01*
X793013Y48953D01*
X793046Y49003D01*
X793113Y49087D01*
X793196Y49178D01*
X793313Y49278D01*
X793446Y49387D01*
X793613Y49487D01*
X793796Y49578D01*
X793804D01*
X793821Y49587D01*
X793846Y49603D01*
X793888Y49612D01*
X793938Y49628D01*
X793996Y49653D01*
X794063Y49670D01*
X794138Y49695D01*
X794313Y49728D01*
X794513Y49770D01*
X794738Y49795D01*
X794971Y49803D01*
X795088D01*
X795154Y49795D01*
D02*
G37*
G36*
X804627Y43288D02*
X803802D01*
X802461Y48162D01*
Y48170D01*
X802452Y48187D01*
X802444Y48220D01*
X802436Y48262D01*
X802402Y48362D01*
X802369Y48487D01*
X802336Y48620D01*
X802302Y48745D01*
X802269Y48845D01*
X802261Y48887D01*
X802252Y48920D01*
Y48912D01*
X802244Y48903D01*
Y48878D01*
X802236Y48845D01*
X802219Y48762D01*
X802194Y48662D01*
X802161Y48545D01*
X802127Y48412D01*
X802094Y48287D01*
X802061Y48162D01*
X800711Y43288D01*
X799820D01*
X798145Y49695D01*
X799020D01*
X799986Y45488D01*
Y45479D01*
X799995Y45454D01*
X800003Y45421D01*
X800011Y45371D01*
X800028Y45313D01*
X800045Y45246D01*
X800061Y45163D01*
X800078Y45079D01*
X800120Y44879D01*
X800170Y44654D01*
X800211Y44421D01*
X800253Y44180D01*
Y44188D01*
X800261Y44221D01*
X800278Y44280D01*
X800294Y44346D01*
X800311Y44421D01*
X800336Y44513D01*
X800386Y44713D01*
X800436Y44921D01*
X800461Y45021D01*
X800478Y45113D01*
X800503Y45196D01*
X800519Y45263D01*
X800536Y45321D01*
X800545Y45363D01*
X801761Y49695D01*
X802786D01*
X803694Y46446D01*
X803702Y46429D01*
X803710Y46396D01*
X803727Y46329D01*
X803752Y46237D01*
X803777Y46137D01*
X803810Y46004D01*
X803852Y45862D01*
X803885Y45713D01*
X803927Y45538D01*
X803969Y45363D01*
X804010Y45171D01*
X804052Y44979D01*
X804135Y44580D01*
X804202Y44180D01*
Y44188D01*
X804210Y44205D01*
X804219Y44238D01*
X804227Y44288D01*
X804235Y44346D01*
X804252Y44413D01*
X804268Y44496D01*
X804285Y44580D01*
X804310Y44679D01*
X804335Y44788D01*
X804385Y45021D01*
X804452Y45288D01*
X804519Y45571D01*
X805527Y49695D01*
X806385D01*
X804627Y43288D01*
D02*
G37*
G36*
X809817D02*
X809034D01*
Y48295D01*
X809017Y48287D01*
X808984Y48254D01*
X808917Y48195D01*
X808834Y48129D01*
X808726Y48045D01*
X808592Y47954D01*
X808451Y47854D01*
X808284Y47754D01*
X808276D01*
X808268Y47745D01*
X808242Y47729D01*
X808209Y47712D01*
X808118Y47662D01*
X808009Y47604D01*
X807884Y47537D01*
X807743Y47470D01*
X807601Y47404D01*
X807459Y47345D01*
Y48112D01*
X807468D01*
X807493Y48129D01*
X807526Y48145D01*
X807568Y48170D01*
X807626Y48195D01*
X807693Y48237D01*
X807851Y48320D01*
X808026Y48429D01*
X808226Y48562D01*
X808418Y48703D01*
X808609Y48862D01*
X808617Y48870D01*
X808634Y48878D01*
X808659Y48903D01*
X808692Y48937D01*
X808776Y49020D01*
X808884Y49137D01*
X808992Y49262D01*
X809109Y49412D01*
X809217Y49562D01*
X809309Y49720D01*
X809817D01*
Y43288D01*
D02*
G37*
G36*
X420107Y141519D02*
X421640D01*
Y140736D01*
X420107D01*
Y137953D01*
X419382D01*
X415233Y140878D01*
Y141519D01*
X419382D01*
Y142386D01*
X420107D01*
Y141519D01*
D02*
G37*
G36*
X421640Y136654D02*
X420315Y135812D01*
X420307D01*
X420290Y135796D01*
X420257Y135779D01*
X420224Y135754D01*
X420174Y135721D01*
X420116Y135679D01*
X419991Y135596D01*
X419849Y135496D01*
X419707Y135396D01*
X419566Y135296D01*
X419441Y135196D01*
X419424Y135187D01*
X419391Y135154D01*
X419332Y135112D01*
X419274Y135054D01*
X419199Y134987D01*
X419124Y134913D01*
X419066Y134838D01*
X419007Y134762D01*
X418999Y134754D01*
X418991Y134729D01*
X418966Y134696D01*
X418941Y134646D01*
X418907Y134588D01*
X418882Y134521D01*
X418833Y134379D01*
Y134371D01*
X418824Y134354D01*
Y134321D01*
X418816Y134271D01*
X418807Y134204D01*
Y134121D01*
X418799Y134029D01*
Y132930D01*
X421640D01*
Y132080D01*
X415233D01*
Y135062D01*
X415242Y135137D01*
Y135212D01*
X415250Y135304D01*
X415258Y135404D01*
X415275Y135612D01*
X415308Y135829D01*
X415350Y136037D01*
X415375Y136137D01*
X415408Y136221D01*
Y136229D01*
X415417Y136237D01*
X415425Y136262D01*
X415442Y136295D01*
X415483Y136379D01*
X415550Y136479D01*
X415633Y136595D01*
X415742Y136712D01*
X415875Y136829D01*
X416025Y136937D01*
X416033D01*
X416041Y136945D01*
X416067Y136962D01*
X416100Y136979D01*
X416191Y137020D01*
X416308Y137070D01*
X416450Y137120D01*
X416616Y137162D01*
X416800Y137195D01*
X416991Y137204D01*
X417000D01*
X417025D01*
X417058D01*
X417108Y137195D01*
X417166Y137187D01*
X417233Y137179D01*
X417391Y137145D01*
X417575Y137095D01*
X417766Y137020D01*
X417858Y136970D01*
X417958Y136912D01*
X418049Y136837D01*
X418141Y136762D01*
X418149Y136754D01*
X418158Y136745D01*
X418183Y136712D01*
X418216Y136679D01*
X418249Y136629D01*
X418291Y136570D01*
X418341Y136504D01*
X418391Y136429D01*
X418441Y136337D01*
X418491Y136237D01*
X418541Y136121D01*
X418591Y135996D01*
X418633Y135862D01*
X418674Y135721D01*
X418708Y135562D01*
X418732Y135396D01*
X418741Y135412D01*
X418758Y135454D01*
X418791Y135512D01*
X418833Y135587D01*
X418941Y135754D01*
X418999Y135829D01*
X419057Y135904D01*
Y135912D01*
X419074Y135921D01*
X419116Y135970D01*
X419191Y136037D01*
X419291Y136137D01*
X419407Y136245D01*
X419557Y136362D01*
X419724Y136487D01*
X419907Y136612D01*
X421640Y137720D01*
Y136654D01*
D02*
G37*
G36*
X138144Y45712D02*
X138236D01*
X138336Y45703D01*
X138444Y45687D01*
X138569Y45670D01*
X138702Y45653D01*
X138844Y45628D01*
X139135Y45562D01*
X139427Y45470D01*
X139577Y45412D01*
X139719Y45345D01*
X139727Y45337D01*
X139752Y45328D01*
X139794Y45304D01*
X139844Y45270D01*
X139902Y45237D01*
X139977Y45187D01*
X140052Y45129D01*
X140143Y45062D01*
X140327Y44912D01*
X140510Y44720D01*
X140693Y44504D01*
X140777Y44379D01*
X140852Y44254D01*
X140860Y44246D01*
X140868Y44220D01*
X140885Y44179D01*
X140910Y44129D01*
X140943Y44062D01*
X140977Y43987D01*
X141010Y43896D01*
X141052Y43796D01*
X141085Y43679D01*
X141118Y43562D01*
X141185Y43296D01*
X141227Y43004D01*
X141243Y42854D01*
Y42604D01*
X141235Y42538D01*
X141227Y42454D01*
X141218Y42354D01*
X141201Y42246D01*
X141185Y42129D01*
X141126Y41879D01*
X141085Y41746D01*
X141035Y41604D01*
X140977Y41471D01*
X140918Y41338D01*
X140835Y41205D01*
X140752Y41080D01*
X140743Y41071D01*
X140727Y41055D01*
X140702Y41013D01*
X140660Y40971D01*
X140610Y40921D01*
X140552Y40855D01*
X140477Y40788D01*
X140393Y40713D01*
X140302Y40638D01*
X140202Y40563D01*
X140085Y40488D01*
X139969Y40413D01*
X139835Y40338D01*
X139694Y40272D01*
X139535Y40205D01*
X139377Y40155D01*
X139177Y40988D01*
X139185D01*
X139210Y40996D01*
X139244Y41013D01*
X139294Y41030D01*
X139352Y41055D01*
X139419Y41080D01*
X139569Y41155D01*
X139735Y41246D01*
X139902Y41354D01*
X140060Y41488D01*
X140127Y41563D01*
X140193Y41638D01*
Y41646D01*
X140210Y41655D01*
X140227Y41679D01*
X140243Y41713D01*
X140268Y41754D01*
X140293Y41804D01*
X140360Y41929D01*
X140418Y42088D01*
X140468Y42271D01*
X140502Y42479D01*
X140518Y42712D01*
Y42787D01*
X140510Y42838D01*
Y42896D01*
X140502Y42971D01*
X140485Y43054D01*
X140477Y43146D01*
X140435Y43337D01*
X140368Y43546D01*
X140277Y43754D01*
X140227Y43854D01*
X140160Y43954D01*
Y43962D01*
X140143Y43979D01*
X140127Y44004D01*
X140093Y44037D01*
X140019Y44120D01*
X139910Y44220D01*
X139777Y44337D01*
X139610Y44454D01*
X139427Y44562D01*
X139210Y44645D01*
X139202D01*
X139185Y44654D01*
X139152Y44662D01*
X139110Y44679D01*
X139052Y44695D01*
X138985Y44712D01*
X138910Y44729D01*
X138835Y44745D01*
X138644Y44779D01*
X138436Y44812D01*
X138211Y44837D01*
X137977Y44845D01*
X137969D01*
X137944D01*
X137902D01*
X137844D01*
X137769Y44837D01*
X137686Y44829D01*
X137594D01*
X137494Y44812D01*
X137269Y44787D01*
X137036Y44745D01*
X136786Y44687D01*
X136553Y44612D01*
X136544D01*
X136528Y44604D01*
X136494Y44587D01*
X136453Y44562D01*
X136403Y44537D01*
X136344Y44512D01*
X136211Y44429D01*
X136061Y44320D01*
X135911Y44195D01*
X135770Y44046D01*
X135645Y43871D01*
Y43862D01*
X135628Y43846D01*
X135620Y43821D01*
X135595Y43779D01*
X135578Y43737D01*
X135553Y43679D01*
X135495Y43546D01*
X135436Y43379D01*
X135395Y43196D01*
X135361Y42996D01*
X135345Y42779D01*
Y42712D01*
X135353Y42663D01*
X135361Y42596D01*
X135370Y42529D01*
X135378Y42446D01*
X135395Y42363D01*
X135445Y42171D01*
X135520Y41971D01*
X135561Y41863D01*
X135620Y41763D01*
X135678Y41663D01*
X135753Y41571D01*
X135761Y41563D01*
X135770Y41546D01*
X135795Y41521D01*
X135828Y41488D01*
X135870Y41455D01*
X135928Y41405D01*
X135986Y41354D01*
X136061Y41304D01*
X136136Y41246D01*
X136228Y41188D01*
X136328Y41138D01*
X136436Y41080D01*
X136561Y41030D01*
X136686Y40980D01*
X136819Y40938D01*
X136969Y40896D01*
X136753Y40047D01*
X136744D01*
X136711Y40063D01*
X136653Y40080D01*
X136578Y40097D01*
X136494Y40130D01*
X136394Y40171D01*
X136286Y40213D01*
X136161Y40272D01*
X136036Y40330D01*
X135903Y40405D01*
X135778Y40480D01*
X135645Y40571D01*
X135511Y40663D01*
X135386Y40771D01*
X135270Y40888D01*
X135161Y41013D01*
X135153Y41021D01*
X135136Y41046D01*
X135111Y41080D01*
X135078Y41138D01*
X135036Y41205D01*
X134986Y41288D01*
X134945Y41379D01*
X134895Y41480D01*
X134837Y41604D01*
X134795Y41729D01*
X134745Y41871D01*
X134703Y42021D01*
X134670Y42179D01*
X134645Y42346D01*
X134628Y42521D01*
X134620Y42704D01*
Y42804D01*
X134628Y42879D01*
X134636Y42962D01*
X134645Y43071D01*
X134653Y43179D01*
X134670Y43304D01*
X134720Y43571D01*
X134795Y43854D01*
X134845Y43995D01*
X134903Y44137D01*
X134962Y44270D01*
X135036Y44395D01*
X135045Y44404D01*
X135053Y44420D01*
X135078Y44454D01*
X135120Y44504D01*
X135161Y44554D01*
X135211Y44620D01*
X135278Y44687D01*
X135353Y44762D01*
X135428Y44845D01*
X135520Y44920D01*
X135620Y45004D01*
X135736Y45087D01*
X135853Y45170D01*
X135978Y45245D01*
X136119Y45320D01*
X136261Y45387D01*
X136270D01*
X136294Y45403D01*
X136344Y45420D01*
X136403Y45437D01*
X136478Y45462D01*
X136561Y45495D01*
X136661Y45520D01*
X136778Y45553D01*
X136903Y45587D01*
X137036Y45612D01*
X137178Y45645D01*
X137319Y45670D01*
X137644Y45703D01*
X137977Y45720D01*
X137986D01*
X138019D01*
X138077D01*
X138144Y45712D01*
D02*
G37*
G36*
X136461Y38497D02*
X136453D01*
X136436Y38489D01*
X136403D01*
X136361Y38480D01*
X136311Y38464D01*
X136253Y38447D01*
X136128Y38414D01*
X135978Y38355D01*
X135828Y38280D01*
X135686Y38189D01*
X135561Y38080D01*
X135553Y38064D01*
X135520Y38022D01*
X135470Y37947D01*
X135420Y37855D01*
X135361Y37739D01*
X135320Y37597D01*
X135286Y37447D01*
X135270Y37272D01*
Y37214D01*
X135278Y37172D01*
X135286Y37131D01*
X135295Y37072D01*
X135320Y36939D01*
X135370Y36781D01*
X135453Y36622D01*
X135495Y36539D01*
X135553Y36456D01*
X135620Y36381D01*
X135695Y36306D01*
X135703Y36298D01*
X135711Y36289D01*
X135736Y36272D01*
X135770Y36247D01*
X135811Y36214D01*
X135870Y36181D01*
X135928Y36147D01*
X135995Y36106D01*
X136161Y36039D01*
X136353Y35973D01*
X136578Y35931D01*
X136694Y35914D01*
X136828D01*
X136836D01*
X136861D01*
X136894D01*
X136936Y35923D01*
X136994D01*
X137061Y35931D01*
X137211Y35964D01*
X137386Y36006D01*
X137561Y36072D01*
X137736Y36164D01*
X137819Y36223D01*
X137894Y36289D01*
X137902D01*
X137911Y36306D01*
X137927Y36331D01*
X137952Y36356D01*
X138019Y36439D01*
X138094Y36556D01*
X138161Y36697D01*
X138227Y36864D01*
X138269Y37064D01*
X138286Y37164D01*
Y37347D01*
X138277Y37414D01*
X138261Y37514D01*
X138244Y37614D01*
X138211Y37731D01*
X138161Y37855D01*
X138102Y37972D01*
X138094Y37989D01*
X138069Y38022D01*
X138036Y38072D01*
X137977Y38139D01*
X137919Y38214D01*
X137836Y38297D01*
X137752Y38372D01*
X137652Y38439D01*
X137761Y39180D01*
X141052Y38564D01*
Y35381D01*
X140302D01*
Y37939D01*
X138569Y38280D01*
X138577Y38272D01*
X138586Y38255D01*
X138610Y38222D01*
X138636Y38180D01*
X138660Y38130D01*
X138702Y38064D01*
X138736Y37997D01*
X138777Y37914D01*
X138852Y37731D01*
X138910Y37531D01*
X138960Y37306D01*
X138969Y37189D01*
X138977Y37072D01*
Y36989D01*
X138969Y36931D01*
X138960Y36864D01*
X138944Y36781D01*
X138927Y36689D01*
X138902Y36581D01*
X138877Y36472D01*
X138835Y36364D01*
X138785Y36247D01*
X138736Y36123D01*
X138660Y36006D01*
X138586Y35889D01*
X138494Y35773D01*
X138394Y35664D01*
X138386Y35656D01*
X138369Y35639D01*
X138336Y35614D01*
X138286Y35573D01*
X138227Y35531D01*
X138161Y35481D01*
X138077Y35423D01*
X137986Y35373D01*
X137886Y35314D01*
X137769Y35264D01*
X137652Y35214D01*
X137519Y35173D01*
X137369Y35131D01*
X137219Y35106D01*
X137061Y35089D01*
X136894Y35081D01*
X136886D01*
X136853D01*
X136811D01*
X136753Y35089D01*
X136678Y35098D01*
X136586Y35106D01*
X136486Y35123D01*
X136386Y35148D01*
X136145Y35206D01*
X136019Y35248D01*
X135894Y35298D01*
X135770Y35356D01*
X135645Y35423D01*
X135520Y35498D01*
X135395Y35589D01*
X135386Y35598D01*
X135361Y35614D01*
X135320Y35656D01*
X135278Y35706D01*
X135211Y35764D01*
X135153Y35839D01*
X135078Y35931D01*
X135011Y36031D01*
X134937Y36147D01*
X134861Y36272D01*
X134803Y36406D01*
X134745Y36556D01*
X134695Y36722D01*
X134653Y36897D01*
X134628Y37081D01*
X134620Y37272D01*
Y37356D01*
X134628Y37414D01*
X134636Y37489D01*
X134645Y37580D01*
X134662Y37672D01*
X134678Y37780D01*
X134736Y38005D01*
X134778Y38122D01*
X134828Y38239D01*
X134878Y38364D01*
X134945Y38480D01*
X135020Y38589D01*
X135103Y38697D01*
X135111Y38705D01*
X135128Y38722D01*
X135153Y38747D01*
X135195Y38780D01*
X135245Y38830D01*
X135303Y38872D01*
X135370Y38930D01*
X135453Y38980D01*
X135536Y39039D01*
X135636Y39088D01*
X135745Y39147D01*
X135861Y39188D01*
X135986Y39238D01*
X136111Y39272D01*
X136253Y39305D01*
X136403Y39322D01*
X136461Y38497D01*
D02*
G37*
G36*
X254984Y115680D02*
X255076D01*
X255176Y115671D01*
X255284Y115655D01*
X255409Y115638D01*
X255542Y115621D01*
X255684Y115596D01*
X255975Y115530D01*
X256267Y115438D01*
X256417Y115380D01*
X256559Y115313D01*
X256567Y115305D01*
X256592Y115296D01*
X256634Y115271D01*
X256684Y115238D01*
X256742Y115205D01*
X256817Y115155D01*
X256892Y115096D01*
X256984Y115030D01*
X257167Y114880D01*
X257350Y114688D01*
X257533Y114472D01*
X257617Y114347D01*
X257692Y114222D01*
X257700Y114213D01*
X257708Y114188D01*
X257725Y114147D01*
X257750Y114097D01*
X257783Y114030D01*
X257817Y113955D01*
X257850Y113863D01*
X257892Y113763D01*
X257925Y113647D01*
X257958Y113530D01*
X258025Y113264D01*
X258067Y112972D01*
X258083Y112822D01*
Y112572D01*
X258075Y112505D01*
X258067Y112422D01*
X258058Y112322D01*
X258041Y112214D01*
X258025Y112097D01*
X257967Y111847D01*
X257925Y111714D01*
X257875Y111572D01*
X257817Y111439D01*
X257758Y111306D01*
X257675Y111172D01*
X257592Y111047D01*
X257583Y111039D01*
X257567Y111023D01*
X257542Y110981D01*
X257500Y110939D01*
X257450Y110889D01*
X257392Y110822D01*
X257317Y110756D01*
X257233Y110681D01*
X257142Y110606D01*
X257042Y110531D01*
X256925Y110456D01*
X256808Y110381D01*
X256675Y110306D01*
X256534Y110239D01*
X256375Y110173D01*
X256217Y110123D01*
X256017Y110956D01*
X256025D01*
X256050Y110964D01*
X256084Y110981D01*
X256134Y110997D01*
X256192Y111023D01*
X256259Y111047D01*
X256409Y111122D01*
X256575Y111214D01*
X256742Y111322D01*
X256900Y111456D01*
X256967Y111531D01*
X257034Y111606D01*
Y111614D01*
X257050Y111622D01*
X257067Y111647D01*
X257083Y111681D01*
X257108Y111722D01*
X257133Y111772D01*
X257200Y111897D01*
X257258Y112056D01*
X257308Y112239D01*
X257342Y112447D01*
X257358Y112680D01*
Y112755D01*
X257350Y112805D01*
Y112864D01*
X257342Y112939D01*
X257325Y113022D01*
X257317Y113114D01*
X257275Y113305D01*
X257208Y113513D01*
X257117Y113722D01*
X257067Y113822D01*
X257000Y113922D01*
Y113930D01*
X256984Y113947D01*
X256967Y113972D01*
X256933Y114005D01*
X256859Y114088D01*
X256750Y114188D01*
X256617Y114305D01*
X256450Y114422D01*
X256267Y114530D01*
X256050Y114613D01*
X256042D01*
X256025Y114621D01*
X255992Y114630D01*
X255950Y114647D01*
X255892Y114663D01*
X255825Y114680D01*
X255751Y114697D01*
X255676Y114713D01*
X255484Y114747D01*
X255276Y114780D01*
X255051Y114805D01*
X254817Y114813D01*
X254809D01*
X254784D01*
X254742D01*
X254684D01*
X254609Y114805D01*
X254526Y114796D01*
X254434D01*
X254334Y114780D01*
X254109Y114755D01*
X253876Y114713D01*
X253626Y114655D01*
X253393Y114580D01*
X253384D01*
X253368Y114572D01*
X253334Y114555D01*
X253293Y114530D01*
X253243Y114505D01*
X253185Y114480D01*
X253051Y114397D01*
X252901Y114288D01*
X252751Y114163D01*
X252610Y114013D01*
X252485Y113838D01*
Y113830D01*
X252468Y113813D01*
X252460Y113788D01*
X252435Y113747D01*
X252418Y113705D01*
X252393Y113647D01*
X252335Y113513D01*
X252276Y113347D01*
X252235Y113164D01*
X252201Y112964D01*
X252185Y112747D01*
Y112680D01*
X252193Y112630D01*
X252201Y112564D01*
X252210Y112497D01*
X252218Y112414D01*
X252235Y112331D01*
X252285Y112139D01*
X252360Y111939D01*
X252401Y111831D01*
X252460Y111731D01*
X252518Y111631D01*
X252593Y111539D01*
X252601Y111531D01*
X252610Y111514D01*
X252635Y111489D01*
X252668Y111456D01*
X252710Y111422D01*
X252768Y111372D01*
X252826Y111322D01*
X252901Y111272D01*
X252976Y111214D01*
X253068Y111156D01*
X253168Y111106D01*
X253276Y111047D01*
X253401Y110997D01*
X253526Y110948D01*
X253659Y110906D01*
X253809Y110864D01*
X253593Y110014D01*
X253584D01*
X253551Y110031D01*
X253493Y110048D01*
X253418Y110064D01*
X253334Y110098D01*
X253234Y110139D01*
X253126Y110181D01*
X253001Y110239D01*
X252876Y110298D01*
X252743Y110373D01*
X252618Y110448D01*
X252485Y110539D01*
X252351Y110631D01*
X252226Y110739D01*
X252110Y110856D01*
X252001Y110981D01*
X251993Y110989D01*
X251976Y111014D01*
X251951Y111047D01*
X251918Y111106D01*
X251877Y111172D01*
X251826Y111256D01*
X251785Y111347D01*
X251735Y111447D01*
X251677Y111572D01*
X251635Y111697D01*
X251585Y111839D01*
X251543Y111989D01*
X251510Y112147D01*
X251485Y112314D01*
X251468Y112489D01*
X251460Y112672D01*
Y112772D01*
X251468Y112847D01*
X251477Y112930D01*
X251485Y113039D01*
X251493Y113147D01*
X251510Y113272D01*
X251560Y113539D01*
X251635Y113822D01*
X251685Y113963D01*
X251743Y114105D01*
X251801Y114238D01*
X251877Y114363D01*
X251885Y114372D01*
X251893Y114388D01*
X251918Y114422D01*
X251960Y114472D01*
X252001Y114522D01*
X252051Y114588D01*
X252118Y114655D01*
X252193Y114730D01*
X252268Y114813D01*
X252360Y114888D01*
X252460Y114971D01*
X252576Y115055D01*
X252693Y115138D01*
X252818Y115213D01*
X252959Y115288D01*
X253101Y115355D01*
X253109D01*
X253134Y115371D01*
X253185Y115388D01*
X253243Y115405D01*
X253318Y115430D01*
X253401Y115463D01*
X253501Y115488D01*
X253618Y115521D01*
X253743Y115555D01*
X253876Y115580D01*
X254018Y115613D01*
X254159Y115638D01*
X254484Y115671D01*
X254817Y115688D01*
X254826D01*
X254859D01*
X254917D01*
X254984Y115680D01*
D02*
G37*
G36*
X254734Y109323D02*
X254859D01*
X255017Y109306D01*
X255192Y109298D01*
X255384Y109273D01*
X255592Y109248D01*
X255809Y109206D01*
X256034Y109165D01*
X256259Y109106D01*
X256484Y109040D01*
X256700Y108965D01*
X256900Y108873D01*
X257092Y108765D01*
X257258Y108648D01*
X257267Y108640D01*
X257292Y108623D01*
X257325Y108590D01*
X257375Y108540D01*
X257433Y108481D01*
X257492Y108406D01*
X257558Y108315D01*
X257633Y108223D01*
X257700Y108115D01*
X257767Y107990D01*
X257825Y107857D01*
X257883Y107715D01*
X257933Y107557D01*
X257967Y107390D01*
X257992Y107215D01*
X258000Y107032D01*
Y106957D01*
X257992Y106907D01*
X257983Y106840D01*
X257975Y106765D01*
X257967Y106682D01*
X257950Y106590D01*
X257900Y106399D01*
X257825Y106190D01*
X257775Y106082D01*
X257717Y105982D01*
X257650Y105882D01*
X257575Y105791D01*
X257567Y105782D01*
X257558Y105765D01*
X257533Y105749D01*
X257500Y105716D01*
X257450Y105674D01*
X257400Y105632D01*
X257342Y105582D01*
X257267Y105532D01*
X257192Y105482D01*
X257100Y105432D01*
X257008Y105391D01*
X256900Y105341D01*
X256675Y105257D01*
X256542Y105232D01*
X256409Y105207D01*
X256350Y105990D01*
X256359D01*
X256367Y105999D01*
X256392D01*
X256425Y106007D01*
X256509Y106032D01*
X256609Y106065D01*
X256717Y106107D01*
X256825Y106165D01*
X256925Y106224D01*
X257017Y106290D01*
X257034Y106307D01*
X257067Y106349D01*
X257125Y106415D01*
X257183Y106507D01*
X257242Y106624D01*
X257300Y106757D01*
X257333Y106915D01*
X257350Y107082D01*
Y107149D01*
X257342Y107215D01*
X257325Y107307D01*
X257300Y107407D01*
X257258Y107523D01*
X257208Y107632D01*
X257133Y107748D01*
X257125Y107765D01*
X257083Y107807D01*
X257025Y107873D01*
X256933Y107957D01*
X256825Y108048D01*
X256692Y108148D01*
X256534Y108240D01*
X256350Y108331D01*
X256342D01*
X256325Y108340D01*
X256300Y108348D01*
X256259Y108365D01*
X256200Y108382D01*
X256134Y108398D01*
X256059Y108415D01*
X255975Y108440D01*
X255875Y108456D01*
X255759Y108473D01*
X255642Y108490D01*
X255509Y108506D01*
X255367Y108523D01*
X255209Y108540D01*
X255042Y108548D01*
X254876D01*
X254884Y108531D01*
X254942Y108498D01*
X255017Y108440D01*
X255109Y108357D01*
X255217Y108257D01*
X255317Y108140D01*
X255425Y108007D01*
X255509Y107857D01*
Y107848D01*
X255517Y107840D01*
X255525Y107815D01*
X255542Y107782D01*
X255576Y107707D01*
X255617Y107598D01*
X255659Y107465D01*
X255692Y107323D01*
X255717Y107165D01*
X255725Y106999D01*
Y106924D01*
X255717Y106865D01*
X255709Y106798D01*
X255692Y106715D01*
X255676Y106632D01*
X255651Y106532D01*
X255625Y106432D01*
X255584Y106324D01*
X255534Y106215D01*
X255484Y106099D01*
X255409Y105982D01*
X255334Y105874D01*
X255242Y105765D01*
X255142Y105657D01*
X255134Y105649D01*
X255117Y105632D01*
X255084Y105607D01*
X255034Y105566D01*
X254976Y105524D01*
X254909Y105482D01*
X254826Y105432D01*
X254734Y105374D01*
X254634Y105324D01*
X254517Y105274D01*
X254401Y105232D01*
X254268Y105182D01*
X254118Y105149D01*
X253968Y105124D01*
X253809Y105107D01*
X253643Y105099D01*
X253634D01*
X253618D01*
X253584D01*
X253543D01*
X253484Y105107D01*
X253426Y105116D01*
X253276Y105132D01*
X253109Y105166D01*
X252918Y105207D01*
X252726Y105274D01*
X252526Y105366D01*
X252518D01*
X252501Y105374D01*
X252476Y105391D01*
X252443Y105416D01*
X252351Y105474D01*
X252235Y105549D01*
X252110Y105657D01*
X251976Y105774D01*
X251852Y105915D01*
X251735Y106082D01*
Y106090D01*
X251726Y106099D01*
X251710Y106124D01*
X251693Y106157D01*
X251668Y106207D01*
X251651Y106257D01*
X251602Y106382D01*
X251543Y106532D01*
X251502Y106707D01*
X251468Y106898D01*
X251460Y107107D01*
Y107149D01*
X251468Y107198D01*
Y107273D01*
X251485Y107357D01*
X251502Y107448D01*
X251518Y107557D01*
X251551Y107673D01*
X251585Y107798D01*
X251635Y107932D01*
X251693Y108065D01*
X251760Y108198D01*
X251843Y108331D01*
X251943Y108465D01*
X252051Y108590D01*
X252176Y108715D01*
X252185Y108723D01*
X252210Y108740D01*
X252251Y108773D01*
X252318Y108815D01*
X252393Y108856D01*
X252493Y108906D01*
X252610Y108965D01*
X252743Y109023D01*
X252901Y109081D01*
X253076Y109140D01*
X253276Y109190D01*
X253484Y109231D01*
X253726Y109273D01*
X253984Y109306D01*
X254259Y109323D01*
X254559Y109331D01*
X254567D01*
X254584D01*
X254609D01*
X254642D01*
X254684D01*
X254734Y109323D01*
D02*
G37*
%LPC*%
G36*
X337975Y48986D02*
X337925D01*
X337883Y48978D01*
X337783Y48961D01*
X337666Y48928D01*
X337525Y48869D01*
X337383Y48786D01*
X337308Y48736D01*
X337241Y48678D01*
X337175Y48603D01*
X337108Y48520D01*
X337100Y48511D01*
X337091Y48495D01*
X337075Y48453D01*
X337050Y48403D01*
X337016Y48336D01*
X336983Y48253D01*
X336950Y48153D01*
X336908Y48028D01*
X336875Y47895D01*
X336833Y47736D01*
X336800Y47561D01*
X336775Y47361D01*
X336741Y47145D01*
X336725Y46903D01*
X336716Y46645D01*
X336708Y46362D01*
Y46353D01*
Y46345D01*
Y46295D01*
Y46212D01*
X336716Y46103D01*
Y45978D01*
X336725Y45837D01*
X336741Y45679D01*
X336758Y45504D01*
X336800Y45154D01*
X336825Y44979D01*
X336866Y44812D01*
X336908Y44646D01*
X336958Y44504D01*
X337008Y44370D01*
X337075Y44262D01*
X337083Y44254D01*
X337091Y44237D01*
X337116Y44212D01*
X337141Y44179D01*
X337216Y44096D01*
X337325Y44004D01*
X337458Y43912D01*
X337616Y43829D01*
X337700Y43796D01*
X337791Y43771D01*
X337883Y43754D01*
X337983Y43746D01*
X338033D01*
X338074Y43754D01*
X338116Y43762D01*
X338175Y43771D01*
X338299Y43812D01*
X338441Y43871D01*
X338516Y43912D01*
X338591Y43962D01*
X338674Y44021D01*
X338749Y44096D01*
X338824Y44171D01*
X338891Y44262D01*
X338899Y44271D01*
X338908Y44287D01*
X338924Y44321D01*
X338949Y44370D01*
X338974Y44429D01*
X339008Y44512D01*
X339041Y44604D01*
X339083Y44721D01*
X339116Y44854D01*
X339149Y45004D01*
X339183Y45179D01*
X339208Y45370D01*
X339233Y45587D01*
X339249Y45820D01*
X339266Y46078D01*
Y46362D01*
Y46370D01*
Y46378D01*
Y46428D01*
Y46512D01*
X339258Y46620D01*
Y46745D01*
X339249Y46887D01*
X339233Y47053D01*
X339216Y47220D01*
X339174Y47570D01*
X339141Y47745D01*
X339108Y47920D01*
X339066Y48078D01*
X339016Y48220D01*
X338958Y48353D01*
X338891Y48461D01*
Y48470D01*
X338874Y48486D01*
X338858Y48511D01*
X338824Y48545D01*
X338749Y48628D01*
X338641Y48728D01*
X338508Y48819D01*
X338349Y48903D01*
X338266Y48936D01*
X338175Y48961D01*
X338074Y48978D01*
X337975Y48986D01*
D02*
G37*
G36*
X499650Y308320D02*
X499600D01*
X499558Y308312D01*
X499516Y308303D01*
X499467Y308295D01*
X499342Y308270D01*
X499200Y308212D01*
X499042Y308137D01*
X498967Y308087D01*
X498892Y308028D01*
X498817Y307962D01*
X498742Y307887D01*
Y307878D01*
X498725Y307870D01*
X498708Y307845D01*
X498683Y307812D01*
X498650Y307770D01*
X498617Y307720D01*
X498583Y307654D01*
X498550Y307587D01*
X498484Y307429D01*
X498417Y307237D01*
X498375Y307020D01*
X498367Y306904D01*
X498358Y306779D01*
Y306770D01*
Y306754D01*
Y306720D01*
X498367Y306679D01*
Y306621D01*
X498375Y306562D01*
X498400Y306420D01*
X498450Y306262D01*
X498508Y306096D01*
X498600Y305929D01*
X498650Y305854D01*
X498717Y305779D01*
X498725D01*
X498733Y305762D01*
X498783Y305721D01*
X498858Y305662D01*
X498967Y305596D01*
X499100Y305521D01*
X499258Y305462D01*
X499433Y305421D01*
X499533Y305412D01*
X499633Y305404D01*
X499683D01*
X499725Y305412D01*
X499767D01*
X499825Y305421D01*
X499950Y305454D01*
X500091Y305496D01*
X500241Y305562D01*
X500383Y305654D01*
X500458Y305712D01*
X500525Y305779D01*
X500533Y305787D01*
X500541Y305796D01*
X500558Y305821D01*
X500583Y305854D01*
X500608Y305887D01*
X500641Y305937D01*
X500708Y306054D01*
X500766Y306204D01*
X500825Y306387D01*
X500866Y306604D01*
X500883Y306720D01*
Y306845D01*
Y306854D01*
Y306879D01*
Y306912D01*
X500874Y306954D01*
Y307012D01*
X500866Y307079D01*
X500841Y307237D01*
X500799Y307404D01*
X500733Y307587D01*
X500641Y307762D01*
X500591Y307845D01*
X500525Y307920D01*
Y307929D01*
X500508Y307937D01*
X500458Y307987D01*
X500383Y308045D01*
X500283Y308120D01*
X500158Y308195D01*
X500008Y308262D01*
X499833Y308303D01*
X499742Y308312D01*
X499650Y308320D01*
D02*
G37*
G36*
X419382Y140736D02*
X416491D01*
X419382Y138720D01*
Y140736D01*
D02*
G37*
G36*
X416991Y136329D02*
X416983D01*
X416975D01*
X416950D01*
X416916Y136320D01*
X416833Y136312D01*
X416725Y136287D01*
X416608Y136245D01*
X416483Y136187D01*
X416358Y136104D01*
X416241Y135996D01*
X416225Y135979D01*
X416191Y135929D01*
X416150Y135854D01*
X416091Y135737D01*
X416067Y135671D01*
X416033Y135596D01*
X416008Y135512D01*
X415992Y135412D01*
X415966Y135312D01*
X415958Y135204D01*
X415942Y135079D01*
Y132930D01*
X418066D01*
Y134888D01*
X418058Y134946D01*
X418049Y135079D01*
X418041Y135221D01*
X418016Y135379D01*
X417991Y135521D01*
X417949Y135654D01*
X417941Y135671D01*
X417924Y135712D01*
X417899Y135771D01*
X417858Y135846D01*
X417808Y135921D01*
X417741Y136004D01*
X417658Y136087D01*
X417566Y136154D01*
X417558Y136162D01*
X417516Y136179D01*
X417466Y136212D01*
X417391Y136245D01*
X417308Y136271D01*
X417208Y136304D01*
X417108Y136320D01*
X416991Y136329D01*
D02*
G37*
G36*
X253643Y108423D02*
X253634D01*
X253626D01*
X253576D01*
X253493Y108415D01*
X253393Y108398D01*
X253276Y108382D01*
X253143Y108357D01*
X253001Y108315D01*
X252859Y108257D01*
X252843Y108248D01*
X252801Y108223D01*
X252735Y108181D01*
X252651Y108132D01*
X252560Y108065D01*
X252468Y107982D01*
X252385Y107882D01*
X252301Y107773D01*
X252293Y107757D01*
X252268Y107723D01*
X252243Y107657D01*
X252210Y107573D01*
X252168Y107482D01*
X252143Y107365D01*
X252118Y107248D01*
X252110Y107123D01*
Y107073D01*
X252118Y107040D01*
X252135Y106948D01*
X252160Y106832D01*
X252210Y106690D01*
X252276Y106549D01*
X252376Y106407D01*
X252443Y106332D01*
X252510Y106265D01*
X252518Y106257D01*
X252526Y106249D01*
X252551Y106232D01*
X252585Y106207D01*
X252626Y106182D01*
X252676Y106149D01*
X252735Y106115D01*
X252793Y106082D01*
X252951Y106024D01*
X253143Y105965D01*
X253359Y105924D01*
X253476Y105907D01*
X253601D01*
X253609D01*
X253634D01*
X253668D01*
X253709Y105915D01*
X253768D01*
X253834Y105924D01*
X253984Y105949D01*
X254151Y105990D01*
X254326Y106057D01*
X254492Y106149D01*
X254576Y106199D01*
X254651Y106265D01*
X254659D01*
X254667Y106282D01*
X254709Y106332D01*
X254776Y106407D01*
X254842Y106507D01*
X254909Y106640D01*
X254976Y106790D01*
X255017Y106965D01*
X255034Y107057D01*
Y107207D01*
X255026Y107248D01*
Y107290D01*
X255017Y107348D01*
X254984Y107465D01*
X254942Y107607D01*
X254876Y107765D01*
X254776Y107915D01*
X254717Y107990D01*
X254651Y108057D01*
X254642D01*
X254634Y108073D01*
X254609Y108090D01*
X254584Y108115D01*
X254501Y108173D01*
X254384Y108240D01*
X254234Y108307D01*
X254068Y108365D01*
X253868Y108406D01*
X253759Y108415D01*
X253643Y108423D01*
D02*
G37*
%LPD*%
D12*
X71480Y129870D02*
Y228270D01*
X-4020Y129870D02*
X71480D01*
X-4020D02*
Y228270D01*
X71480D01*
X288336Y72846D02*
X364336D01*
Y13346D02*
Y72846D01*
X288336Y13346D02*
X364336D01*
X288336D02*
Y72846D01*
X345540Y332010D02*
X421540D01*
Y272510D02*
Y332010D01*
X345540Y272510D02*
X421540D01*
X345540D02*
Y332010D01*
X429960Y272680D02*
Y332180D01*
Y272680D02*
X555960D01*
Y332180D01*
X429960D02*
X555960D01*
X743980Y12180D02*
Y74180D01*
Y12180D02*
X840980D01*
Y74180D01*
X743980D02*
X840980D01*
X409091Y110789D02*
X434189D01*
Y153371D01*
X409091D02*
X434189D01*
X409091Y110789D02*
Y153371D01*
X121839Y67251D02*
X147401D01*
X121839Y24189D02*
Y67251D01*
Y24189D02*
X147401D01*
Y67251D01*
X238679Y137219D02*
X264241D01*
X238679Y94157D02*
Y137219D01*
Y94157D02*
X264241D01*
Y137219D01*
M02*
