G04*
G04 #@! TF.GenerationSoftware,Altium Limited,Altium Designer,25.2.1 (25)*
G04*
G04 Layer_Color=16711935*
%FSLAX44Y44*%
%MOMM*%
G71*
G04*
G04 #@! TF.SameCoordinates,151459D2-9B86-48AD-89DC-2ABF3E981002*
G04*
G04*
G04 #@! TF.FilePolarity,Negative*
G04*
G01*
G75*
%ADD48C,1.2032*%
G04:AMPARAMS|DCode=49|XSize=1.8032mm|YSize=1.8032mm|CornerRadius=0.5016mm|HoleSize=0mm|Usage=FLASHONLY|Rotation=0.000|XOffset=0mm|YOffset=0mm|HoleType=Round|Shape=RoundedRectangle|*
%AMROUNDEDRECTD49*
21,1,1.8032,0.8000,0,0,0.0*
21,1,0.8000,1.8032,0,0,0.0*
1,1,1.0032,0.4000,-0.4000*
1,1,1.0032,-0.4000,-0.4000*
1,1,1.0032,-0.4000,0.4000*
1,1,1.0032,0.4000,0.4000*
%
%ADD49ROUNDEDRECTD49*%
%ADD50C,1.8032*%
G04:AMPARAMS|DCode=51|XSize=1mm|YSize=2.2mm|CornerRadius=0.5mm|HoleSize=0mm|Usage=FLASHONLY|Rotation=270.000|XOffset=0mm|YOffset=0mm|HoleType=Round|Shape=RoundedRectangle|*
%AMROUNDEDRECTD51*
21,1,1.0000,1.2000,0,0,270.0*
21,1,0.0000,2.2000,0,0,270.0*
1,1,1.0000,-0.6000,0.0000*
1,1,1.0000,-0.6000,0.0000*
1,1,1.0000,0.6000,0.0000*
1,1,1.0000,0.6000,0.0000*
%
%ADD51ROUNDEDRECTD51*%
G04:AMPARAMS|DCode=52|XSize=1mm|YSize=1.8mm|CornerRadius=0.5mm|HoleSize=0mm|Usage=FLASHONLY|Rotation=270.000|XOffset=0mm|YOffset=0mm|HoleType=Round|Shape=RoundedRectangle|*
%AMROUNDEDRECTD52*
21,1,1.0000,0.8000,0,0,270.0*
21,1,0.0000,1.8000,0,0,270.0*
1,1,1.0000,-0.4000,0.0000*
1,1,1.0000,-0.4000,0.0000*
1,1,1.0000,0.4000,0.0000*
1,1,1.0000,0.4000,0.0000*
%
%ADD52ROUNDEDRECTD52*%
%ADD53C,1.7112*%
%ADD54R,1.7112X1.7112*%
G04:AMPARAMS|DCode=55|XSize=1.8032mm|YSize=1.8032mm|CornerRadius=0.5016mm|HoleSize=0mm|Usage=FLASHONLY|Rotation=270.000|XOffset=0mm|YOffset=0mm|HoleType=Round|Shape=RoundedRectangle|*
%AMROUNDEDRECTD55*
21,1,1.8032,0.8000,0,0,270.0*
21,1,0.8000,1.8032,0,0,270.0*
1,1,1.0032,-0.4000,-0.4000*
1,1,1.0032,-0.4000,0.4000*
1,1,1.0032,0.4000,0.4000*
1,1,1.0032,0.4000,-0.4000*
%
%ADD55ROUNDEDRECTD55*%
%ADD56R,1.5500X1.5500*%
%ADD57C,1.5500*%
%ADD58C,1.1000*%
%ADD59R,1.4000X1.4000*%
%ADD60C,1.4000*%
%ADD61C,0.8128*%
D48*
X26670Y26670D02*
D03*
X872490D02*
D03*
X26670Y322580D02*
D03*
X872490D02*
D03*
D49*
X232410Y29210D02*
D03*
X685800Y25400D02*
D03*
X627380Y302260D02*
D03*
D50*
X257810Y29210D02*
D03*
X711200Y25400D02*
D03*
X601980Y302260D02*
D03*
X876300Y129540D02*
D03*
Y154940D02*
D03*
Y205740D02*
D03*
Y231140D02*
D03*
Y180340D02*
D03*
X24130Y76200D02*
D03*
D51*
X18980Y222270D02*
D03*
Y135870D02*
D03*
D52*
X58980Y222270D02*
D03*
Y135870D02*
D03*
D53*
X565950Y33020D02*
D03*
X590950D02*
D03*
X468000Y33000D02*
D03*
X443000D02*
D03*
D54*
X615950Y33020D02*
D03*
X493000Y33000D02*
D03*
D55*
X876300Y256540D02*
D03*
X24130Y101600D02*
D03*
D56*
X338836Y37846D02*
D03*
X396040Y297010D02*
D03*
D57*
X313836Y37846D02*
D03*
X371040Y297010D02*
D03*
D58*
X354836Y57846D02*
D03*
X412040Y317010D02*
D03*
D59*
X530460Y297180D02*
D03*
D60*
X505460D02*
D03*
X480460D02*
D03*
X455460D02*
D03*
D61*
X216656Y175260D02*
D03*
X311150Y151638D02*
D03*
X450342Y185420D02*
D03*
X122428Y137414D02*
D03*
X207772Y91186D02*
D03*
X166624Y129032D02*
D03*
X662940Y109982D02*
D03*
X627380Y157988D02*
D03*
X90170Y188468D02*
D03*
X104902Y201930D02*
D03*
X199390Y58420D02*
D03*
X106934Y45466D02*
D03*
X216576Y198374D02*
D03*
X249174Y236474D02*
D03*
X191008Y226822D02*
D03*
X105410Y91201D02*
D03*
X615696Y94488D02*
D03*
X537972Y160782D02*
D03*
X524256Y99060D02*
D03*
X564134Y208534D02*
D03*
X448310Y211582D02*
D03*
X562280Y127686D02*
D03*
X659863Y209775D02*
D03*
X509778Y189484D02*
D03*
X122570Y162926D02*
D03*
X439166Y121412D02*
D03*
X704596Y165100D02*
D03*
X703834Y149606D02*
D03*
Y129540D02*
D03*
X807720Y130048D02*
D03*
X807466Y209804D02*
D03*
X807212Y189992D02*
D03*
X807720Y170180D02*
D03*
M02*
