G04*
G04 #@! TF.GenerationSoftware,Altium Limited,Altium Designer,25.2.1 (25)*
G04*
G04 Layer_Color=16711935*
%FSLAX44Y44*%
%MOMM*%
G71*
G04*
G04 #@! TF.SameCoordinates,151459D2-9B86-48AD-89DC-2ABF3E981002*
G04*
G04*
G04 #@! TF.FilePolarity,Positive*
G04*
G01*
G75*
%ADD10C,0.1270*%
%ADD12C,0.2000*%
%ADD71C,0.1000*%
G36*
X633880Y185340D02*
X620880D01*
Y190340D01*
X633880D01*
Y185340D01*
D02*
G37*
G36*
X605940D02*
X592940D01*
Y190340D01*
X605940D01*
Y185340D01*
D02*
G37*
G36*
X532280D02*
X519280D01*
Y190340D01*
X532280D01*
Y185340D01*
D02*
G37*
G36*
X317650Y180260D02*
X304650D01*
Y185260D01*
X317650D01*
Y180260D01*
D02*
G37*
G36*
X633880Y170340D02*
X620880D01*
Y175340D01*
X633880D01*
Y170340D01*
D02*
G37*
G36*
X605940D02*
X592940D01*
Y175340D01*
X605940D01*
Y170340D01*
D02*
G37*
G36*
X532280D02*
X519280D01*
Y175340D01*
X532280D01*
Y170340D01*
D02*
G37*
G36*
X317650Y165260D02*
X304650D01*
Y170260D01*
X317650D01*
Y165260D01*
D02*
G37*
G36*
X607210Y97600D02*
X594210D01*
Y102600D01*
X607210D01*
Y97600D01*
D02*
G37*
G36*
Y82600D02*
X594210D01*
Y87600D01*
X607210D01*
Y82600D01*
D02*
G37*
D10*
X675000Y95000D02*
Y335000D01*
Y95000D02*
X835000D01*
Y335000D01*
X675000D02*
X835000D01*
X594210Y82600D02*
X607210D01*
Y102600D01*
X594210D02*
X607210D01*
X594210Y82600D02*
Y102600D01*
X649810Y90990D02*
Y104590D01*
X627810Y90990D02*
Y104590D01*
Y90990D02*
X649810D01*
X627810Y104590D02*
X649810D01*
X540570Y107110D02*
X554170D01*
X540570Y129110D02*
X554170D01*
X540570Y107110D02*
Y129110D01*
X554170Y107110D02*
Y129110D01*
X541450Y67020D02*
X640450D01*
Y9520D02*
Y67020D01*
X541450Y9520D02*
X640450D01*
X541450D02*
Y67020D01*
X418500Y9500D02*
Y67000D01*
Y9500D02*
X517500D01*
Y67000D01*
X418500D02*
X517500D01*
X212620Y108840D02*
Y124840D01*
X183620Y108840D02*
X212620D01*
X183620D02*
Y124840D01*
X212620D01*
X427540Y210480D02*
Y231480D01*
X441140Y210480D02*
Y231480D01*
X427540Y210480D02*
X441140D01*
X427540Y231480D02*
X441140D01*
X620880Y190340D02*
X633880D01*
X620880Y170340D02*
Y190340D01*
Y170340D02*
X633880D01*
Y190340D01*
X470350Y122240D02*
Y143240D01*
X456750Y122240D02*
Y143240D01*
X470350D01*
X456750Y122240D02*
X470350D01*
X356420Y210480D02*
Y231480D01*
X370020Y210480D02*
Y231480D01*
X356420Y210480D02*
X370020D01*
X356420Y231480D02*
X370020D01*
X549380Y188340D02*
X578380D01*
X549380Y172340D02*
X578380D01*
Y188340D01*
X549380Y172340D02*
Y188340D01*
X592940Y190340D02*
X605940D01*
X592940Y170340D02*
Y190340D01*
Y170340D02*
X605940D01*
Y190340D01*
X519280Y170340D02*
Y190340D01*
X532280D01*
Y170340D02*
Y190340D01*
X519280Y170340D02*
X532280D01*
X127320Y221080D02*
X167320D01*
X127320Y170080D02*
X167320D01*
X127320D02*
Y221080D01*
X167320Y170080D02*
Y221080D01*
X130280Y108840D02*
Y124840D01*
Y108840D02*
X159280D01*
Y124840D01*
X130280D02*
X159280D01*
X317650Y165260D02*
Y185260D01*
X304650Y165260D02*
X317650D01*
X304650D02*
Y185260D01*
X317650D01*
D12*
X649450Y33020D02*
G03*
X649450Y33020I-1000J0D01*
G01*
X526500Y33000D02*
G03*
X526500Y33000I-1000J0D01*
G01*
X208620Y142390D02*
G03*
X208620Y142390I-1000J0D01*
G01*
X575380Y204440D02*
G03*
X575380Y204440I-1000J0D01*
G01*
X103870Y220630D02*
G03*
X103870Y220630I-1000J0D01*
G01*
X155230Y141120D02*
G03*
X155230Y141120I-1000J0D01*
G01*
D71*
X169840Y51670D02*
Y65170D01*
X190840Y51670D02*
Y65170D01*
X169840D02*
X190840D01*
X169840Y51670D02*
X190840D01*
X301920Y123590D02*
X322920D01*
X301920Y110090D02*
X322920D01*
X301920D02*
Y123590D01*
X322920Y110090D02*
Y123590D01*
X229530Y205124D02*
X250530D01*
X229530Y191624D02*
X250530D01*
X229530D02*
Y205124D01*
X250530Y191624D02*
Y205124D01*
X229420Y214992D02*
X250420D01*
X229420Y228492D02*
X250420D01*
Y214992D02*
Y228492D01*
X229420Y214992D02*
Y228492D01*
X229500Y168250D02*
X250500D01*
X229500Y181750D02*
X250500D01*
Y168250D02*
Y181750D01*
X229500Y168250D02*
Y181750D01*
M02*
