M48
;Layer_Color=9474304
;FILE_FORMAT=4:4
METRIC,LZ
;TYPE=PLATED
T01F00S00C0.3048
T03F00S00C0.9000
T04F00S00C1.0000
T05F00S00C1.1000
T06F00S00C3.2000
;TYPE=NON_PLATED
T07F00S00C1.1000
%
T01
X00106934Y00045466
X0010541Y00091201
X00122428Y00137414
X0012257Y00162926
X00166624Y00129032
X00207772Y00091186
X0019939Y0005842
X0031115Y00151638
X00439166Y00121412
X00524256Y0009906
X0056228Y00127686
X00537972Y00160782
X0062738Y00157988
X00615696Y00094488
X0066294Y00109982
X00703834Y0012954
Y00149606
X0080772Y00130048
Y0017018
X00807212Y00189992
X00807466Y00209804
X00704596Y001651
X00659863Y00209775
X00564134Y00208534
X00509778Y00189484
X00450342Y0018542
X0044831Y00211582
X00249174Y00236474
X00191008Y00226822
X00216576Y00198374
X00216656Y0017526
X00104902Y0020193
X0009017Y00188468
T03
X0045546Y0029718
X0048046
X0050546
X0053046
T04
X00313836Y00037846
X00338836
X00443Y00033
X00468
X00493
X0056595Y0003302
X0059095
X0061595
X0039604Y0029701
X0037104
T05
X0002413Y000762
Y001016
X0023241Y0002921
X0025781
X006858Y000254
X007112
X008763Y0012954
Y0015494
Y0018034
Y0020574
Y0023114
Y0025654
X0062738Y0030226
X0060198
T06
X0002667Y0002667
X0087249
Y0032258
X0002667
T07
X00354836Y00057846
X0041204Y0031701
M30
