G04*
G04 #@! TF.GenerationSoftware,Altium Limited,Altium Designer,25.2.1 (25)*
G04*
G04 Layer_Color=65535*
%FSLAX44Y44*%
%MOMM*%
G71*
G04*
G04 #@! TF.SameCoordinates,151459D2-9B86-48AD-89DC-2ABF3E981002*
G04*
G04*
G04 #@! TF.FilePolarity,Positive*
G04*
G01*
G75*
%ADD10C,0.1270*%
%ADD11C,0.2500*%
%ADD12C,0.2000*%
%ADD13C,0.2540*%
%ADD14C,0.1981*%
%ADD15C,0.1993*%
%ADD16R,1.5000X0.2000*%
%ADD17R,0.2000X1.5000*%
G36*
X311397Y268833D02*
X311524Y268807D01*
Y266991D01*
X311512D01*
X311486Y267004D01*
X311410Y267017D01*
X311308Y267029D01*
X311156D01*
X311080Y267017D01*
X311004Y267004D01*
X310902Y266966D01*
X310788Y266928D01*
X310661Y266864D01*
X310546Y266775D01*
X310420Y266661D01*
X310292Y266534D01*
X310178Y266369D01*
X310077Y266166D01*
X310000Y265937D01*
X309937Y265658D01*
X309886Y265340D01*
X309873Y264984D01*
Y262140D01*
X308019D01*
Y268769D01*
X309645D01*
Y267182D01*
X309670Y267232D01*
X309696Y267309D01*
X309734Y267423D01*
X309785Y267550D01*
X309835Y267690D01*
X309911Y267842D01*
X310000Y268007D01*
X310102Y268160D01*
X310216Y268312D01*
X310343Y268452D01*
X310483Y268579D01*
X310648Y268693D01*
X310813Y268769D01*
X311004Y268833D01*
X311207Y268845D01*
X311296D01*
X311397Y268833D01*
D02*
G37*
G36*
X289998Y262140D02*
X288156D01*
Y269633D01*
X286328Y262140D01*
X284893D01*
X283229Y269633D01*
Y262140D01*
X281629D01*
Y271093D01*
X284512D01*
X285769Y265556D01*
X287191Y271093D01*
X289998D01*
Y262140D01*
D02*
G37*
G36*
X276777D02*
X275228D01*
X274377Y266648D01*
X273539Y262140D01*
X272040D01*
X270376Y268769D01*
X272167D01*
X272942Y264718D01*
X273691Y268769D01*
X275494D01*
X276091Y264743D01*
X276980Y268769D01*
X278441D01*
X276777Y262140D01*
D02*
G37*
G36*
X263633D02*
X261779D01*
Y271093D01*
X263633D01*
Y262140D01*
D02*
G37*
G36*
X261321Y269557D02*
X257969D01*
Y267220D01*
X260547D01*
Y265683D01*
X257969D01*
Y262140D01*
X256000D01*
Y271093D01*
X261321D01*
Y269557D01*
D02*
G37*
G36*
X304476Y268883D02*
X304565Y268871D01*
X304679Y268858D01*
X304806Y268833D01*
X304946Y268794D01*
X305238Y268693D01*
X305390Y268629D01*
X305555Y268553D01*
X305708Y268464D01*
X305860Y268350D01*
X306013Y268223D01*
X306165Y268083D01*
X306178Y268071D01*
X306203Y268045D01*
X306241Y267994D01*
X306279Y267931D01*
X306343Y267829D01*
X306406Y267715D01*
X306470Y267575D01*
X306546Y267410D01*
X306622Y267232D01*
X306686Y267017D01*
X306749Y266775D01*
X306813Y266509D01*
X306851Y266204D01*
X306889Y265886D01*
X306914Y265518D01*
X306927Y265137D01*
X303460D01*
Y264769D01*
Y264756D01*
Y264730D01*
Y264680D01*
Y264629D01*
X303473Y264477D01*
X303485Y264286D01*
X303511Y264083D01*
X303561Y263892D01*
X303612Y263715D01*
X303650Y263638D01*
X303689Y263575D01*
X303701Y263562D01*
X303727Y263524D01*
X303790Y263486D01*
X303854Y263435D01*
X303955Y263372D01*
X304057Y263333D01*
X304184Y263295D01*
X304324Y263283D01*
X304362D01*
X304400Y263295D01*
X304450D01*
X304590Y263346D01*
X304679Y263372D01*
X304755Y263422D01*
X304844Y263486D01*
X304920Y263562D01*
X305009Y263651D01*
X305086Y263765D01*
X305149Y263892D01*
X305200Y264045D01*
X305251Y264210D01*
X305276Y264413D01*
X306927Y264299D01*
Y264273D01*
X306902Y264197D01*
X306876Y264083D01*
X306825Y263943D01*
X306762Y263765D01*
X306673Y263575D01*
X306559Y263359D01*
X306432Y263156D01*
X306279Y262940D01*
X306089Y262724D01*
X305873Y262533D01*
X305632Y262356D01*
X305352Y262216D01*
X305035Y262102D01*
X304692Y262025D01*
X304501Y262013D01*
X304298Y262000D01*
X304171D01*
X304082Y262013D01*
X303968Y262025D01*
X303841Y262051D01*
X303689Y262076D01*
X303536Y262114D01*
X303371Y262165D01*
X303206Y262216D01*
X303041Y262292D01*
X302863Y262381D01*
X302698Y262483D01*
X302546Y262610D01*
X302393Y262749D01*
X302253Y262902D01*
X302241Y262914D01*
X302228Y262940D01*
X302190Y262991D01*
X302139Y263067D01*
X302088Y263156D01*
X302038Y263270D01*
X301974Y263397D01*
X301910Y263549D01*
X301834Y263715D01*
X301771Y263905D01*
X301720Y264108D01*
X301669Y264324D01*
X301618Y264553D01*
X301580Y264807D01*
X301568Y265073D01*
X301555Y265353D01*
Y265378D01*
Y265429D01*
Y265518D01*
X301568Y265632D01*
X301580Y265785D01*
X301593Y265950D01*
X301618Y266127D01*
X301644Y266331D01*
X301733Y266750D01*
X301796Y266966D01*
X301872Y267182D01*
X301949Y267397D01*
X302050Y267601D01*
X302164Y267804D01*
X302292Y267982D01*
X302304Y267994D01*
X302330Y268020D01*
X302368Y268071D01*
X302431Y268121D01*
X302507Y268198D01*
X302596Y268274D01*
X302698Y268350D01*
X302812Y268439D01*
X302952Y268528D01*
X303104Y268604D01*
X303269Y268680D01*
X303447Y268756D01*
X303638Y268807D01*
X303841Y268858D01*
X304057Y268883D01*
X304285Y268896D01*
X304400D01*
X304476Y268883D01*
D02*
G37*
G36*
X299790Y268769D02*
X301009D01*
Y267309D01*
X299790D01*
Y264870D01*
Y264858D01*
Y264845D01*
Y264756D01*
Y264642D01*
Y264502D01*
X299802Y264349D01*
Y264210D01*
Y264083D01*
X299815Y263981D01*
Y263969D01*
X299828Y263956D01*
X299853Y263867D01*
X299904Y263765D01*
X299955Y263702D01*
X300005Y263651D01*
X300018D01*
X300044Y263626D01*
X300082Y263613D01*
X300133Y263587D01*
X300209Y263562D01*
X300310Y263549D01*
X300425Y263524D01*
X300882D01*
X301098Y263537D01*
Y262140D01*
X301072D01*
X300996Y262114D01*
X300869Y262102D01*
X300729Y262076D01*
X300552Y262051D01*
X300361Y262025D01*
X300158Y262013D01*
X299967Y262000D01*
X299828D01*
X299675Y262013D01*
X299485Y262038D01*
X299282Y262076D01*
X299066Y262140D01*
X298850Y262216D01*
X298672Y262318D01*
X298659Y262330D01*
X298596Y262381D01*
X298520Y262444D01*
X298431Y262533D01*
X298342Y262648D01*
X298240Y262787D01*
X298164Y262940D01*
X298100Y263118D01*
Y263143D01*
X298088Y263207D01*
X298062Y263333D01*
X298050Y263499D01*
X298024Y263715D01*
X298012Y263841D01*
X297999Y263981D01*
Y264134D01*
X297986Y264299D01*
Y264477D01*
Y264667D01*
Y267309D01*
X297250D01*
Y268769D01*
X297986D01*
Y270801D01*
X299790Y270865D01*
Y268769D01*
D02*
G37*
G36*
X294176Y268883D02*
X294265Y268871D01*
X294379Y268858D01*
X294506Y268833D01*
X294646Y268794D01*
X294938Y268693D01*
X295091Y268629D01*
X295256Y268553D01*
X295408Y268464D01*
X295560Y268350D01*
X295713Y268223D01*
X295865Y268083D01*
X295878Y268071D01*
X295903Y268045D01*
X295942Y267994D01*
X295980Y267931D01*
X296043Y267829D01*
X296107Y267715D01*
X296170Y267575D01*
X296246Y267410D01*
X296322Y267232D01*
X296386Y267017D01*
X296450Y266775D01*
X296513Y266509D01*
X296551Y266204D01*
X296589Y265886D01*
X296615Y265518D01*
X296627Y265137D01*
X293160D01*
Y264769D01*
Y264756D01*
Y264730D01*
Y264680D01*
Y264629D01*
X293173Y264477D01*
X293186Y264286D01*
X293211Y264083D01*
X293262Y263892D01*
X293313Y263715D01*
X293351Y263638D01*
X293389Y263575D01*
X293402Y263562D01*
X293427Y263524D01*
X293490Y263486D01*
X293554Y263435D01*
X293655Y263372D01*
X293757Y263333D01*
X293884Y263295D01*
X294024Y263283D01*
X294062D01*
X294100Y263295D01*
X294151D01*
X294291Y263346D01*
X294379Y263372D01*
X294456Y263422D01*
X294545Y263486D01*
X294621Y263562D01*
X294710Y263651D01*
X294786Y263765D01*
X294849Y263892D01*
X294900Y264045D01*
X294951Y264210D01*
X294976Y264413D01*
X296627Y264299D01*
Y264273D01*
X296602Y264197D01*
X296576Y264083D01*
X296526Y263943D01*
X296462Y263765D01*
X296373Y263575D01*
X296259Y263359D01*
X296132Y263156D01*
X295980Y262940D01*
X295789Y262724D01*
X295573Y262533D01*
X295332Y262356D01*
X295053Y262216D01*
X294735Y262102D01*
X294392Y262025D01*
X294202Y262013D01*
X293998Y262000D01*
X293871D01*
X293783Y262013D01*
X293668Y262025D01*
X293541Y262051D01*
X293389Y262076D01*
X293236Y262114D01*
X293071Y262165D01*
X292906Y262216D01*
X292741Y262292D01*
X292563Y262381D01*
X292398Y262483D01*
X292246Y262610D01*
X292093Y262749D01*
X291954Y262902D01*
X291941Y262914D01*
X291928Y262940D01*
X291890Y262991D01*
X291839Y263067D01*
X291789Y263156D01*
X291738Y263270D01*
X291674Y263397D01*
X291611Y263549D01*
X291535Y263715D01*
X291471Y263905D01*
X291420Y264108D01*
X291369Y264324D01*
X291319Y264553D01*
X291281Y264807D01*
X291268Y265073D01*
X291255Y265353D01*
Y265378D01*
Y265429D01*
Y265518D01*
X291268Y265632D01*
X291281Y265785D01*
X291293Y265950D01*
X291319Y266127D01*
X291344Y266331D01*
X291433Y266750D01*
X291497Y266966D01*
X291573Y267182D01*
X291649Y267397D01*
X291751Y267601D01*
X291865Y267804D01*
X291992Y267982D01*
X292005Y267994D01*
X292030Y268020D01*
X292068Y268071D01*
X292132Y268121D01*
X292208Y268198D01*
X292297Y268274D01*
X292398Y268350D01*
X292512Y268439D01*
X292652Y268528D01*
X292805Y268604D01*
X292970Y268680D01*
X293148Y268756D01*
X293338Y268807D01*
X293541Y268858D01*
X293757Y268883D01*
X293986Y268896D01*
X294100D01*
X294176Y268883D01*
D02*
G37*
G36*
X267646Y268871D02*
X267811Y268845D01*
X268014Y268794D01*
X268243Y268718D01*
X268484Y268604D01*
X268738Y268464D01*
X268992Y268286D01*
X269233Y268058D01*
X269348Y267918D01*
X269462Y267778D01*
X269564Y267613D01*
X269665Y267436D01*
X269754Y267245D01*
X269830Y267042D01*
X269907Y266826D01*
X269970Y266585D01*
X270021Y266331D01*
X270059Y266051D01*
X270072Y265759D01*
X270084Y265442D01*
Y265429D01*
Y265404D01*
Y265353D01*
Y265289D01*
X270072Y265213D01*
Y265124D01*
X270046Y264908D01*
X270008Y264642D01*
X269945Y264349D01*
X269856Y264045D01*
X269754Y263727D01*
X269602Y263397D01*
X269424Y263092D01*
X269208Y262800D01*
X268954Y262533D01*
X268802Y262419D01*
X268636Y262318D01*
X268471Y262229D01*
X268281Y262152D01*
X268078Y262089D01*
X267862Y262038D01*
X267633Y262013D01*
X267392Y262000D01*
X267328D01*
X267278Y262013D01*
X267151Y262025D01*
X266973Y262051D01*
X266770Y262102D01*
X266541Y262178D01*
X266300Y262292D01*
X266058Y262432D01*
X265804Y262610D01*
X265563Y262838D01*
X265449Y262978D01*
X265334Y263118D01*
X265233Y263283D01*
X265131Y263448D01*
X265042Y263638D01*
X264966Y263841D01*
X264890Y264070D01*
X264827Y264311D01*
X264776Y264565D01*
X264738Y264832D01*
X264725Y265124D01*
X264712Y265442D01*
Y265454D01*
Y265480D01*
Y265531D01*
Y265594D01*
X264725Y265670D01*
Y265759D01*
X264750Y265988D01*
X264788Y266242D01*
X264852Y266534D01*
X264941Y266851D01*
X265042Y267169D01*
X265195Y267486D01*
X265373Y267804D01*
X265588Y268096D01*
X265842Y268363D01*
X265995Y268477D01*
X266147Y268579D01*
X266325Y268668D01*
X266503Y268744D01*
X266706Y268807D01*
X266922Y268858D01*
X267151Y268883D01*
X267392Y268896D01*
X267506D01*
X267646Y268871D01*
D02*
G37*
%LPC*%
G36*
X304324Y267677D02*
X304285D01*
X304247Y267664D01*
X304196Y267652D01*
X304120Y267639D01*
X304057Y267601D01*
X303981Y267550D01*
X303904Y267499D01*
X303815Y267423D01*
X303739Y267321D01*
X303676Y267207D01*
X303612Y267067D01*
X303549Y266889D01*
X303511Y266699D01*
X303485Y266470D01*
X303473Y266216D01*
X305187D01*
Y266242D01*
Y266280D01*
Y266343D01*
Y266394D01*
Y266407D01*
Y266445D01*
Y266509D01*
X305174Y266597D01*
X305162Y266686D01*
X305136Y266801D01*
X305086Y267042D01*
X304971Y267271D01*
X304908Y267385D01*
X304819Y267474D01*
X304730Y267563D01*
X304603Y267626D01*
X304476Y267664D01*
X304324Y267677D01*
D02*
G37*
G36*
X294024D02*
X293986D01*
X293948Y267664D01*
X293897Y267652D01*
X293821Y267639D01*
X293757Y267601D01*
X293681Y267550D01*
X293605Y267499D01*
X293516Y267423D01*
X293440Y267321D01*
X293376Y267207D01*
X293313Y267067D01*
X293249Y266889D01*
X293211Y266699D01*
X293186Y266470D01*
X293173Y266216D01*
X294887D01*
Y266242D01*
Y266280D01*
Y266343D01*
Y266394D01*
Y266407D01*
Y266445D01*
Y266509D01*
X294875Y266597D01*
X294862Y266686D01*
X294837Y266801D01*
X294786Y267042D01*
X294671Y267271D01*
X294608Y267385D01*
X294519Y267474D01*
X294430Y267563D01*
X294303Y267626D01*
X294176Y267664D01*
X294024Y267677D01*
D02*
G37*
G36*
X267392Y267613D02*
X267328D01*
X267252Y267588D01*
X267163Y267563D01*
X267062Y267512D01*
X266960Y267436D01*
X266871Y267321D01*
X266795Y267182D01*
X266782Y267156D01*
X266770Y267093D01*
X266757Y267042D01*
X266744Y266978D01*
X266719Y266902D01*
X266706Y266813D01*
X266693Y266699D01*
X266668Y266572D01*
X266655Y266432D01*
X266643Y266267D01*
X266630Y266089D01*
Y265899D01*
X266617Y265683D01*
Y265442D01*
Y265429D01*
Y265391D01*
Y265327D01*
Y265238D01*
Y265150D01*
X266630Y265035D01*
X266643Y264769D01*
X266655Y264489D01*
X266681Y264210D01*
X266719Y263956D01*
X266744Y263854D01*
X266770Y263753D01*
X266782Y263727D01*
X266795Y263676D01*
X266846Y263600D01*
X266909Y263524D01*
X266985Y263435D01*
X267100Y263359D01*
X267227Y263308D01*
X267392Y263283D01*
X267417D01*
X267468Y263295D01*
X267544Y263308D01*
X267646Y263346D01*
X267747Y263397D01*
X267849Y263486D01*
X267938Y263600D01*
X268014Y263753D01*
X268027Y263778D01*
X268040Y263841D01*
X268052Y263905D01*
X268065Y263969D01*
X268078Y264045D01*
X268103Y264146D01*
X268116Y264248D01*
X268129Y264375D01*
X268141Y264515D01*
X268154Y264667D01*
X268167Y264832D01*
Y265023D01*
X268179Y265226D01*
Y265442D01*
Y265454D01*
Y265492D01*
Y265556D01*
Y265645D01*
Y265746D01*
X268167Y265874D01*
X268154Y266127D01*
X268141Y266420D01*
X268103Y266699D01*
X268090Y266839D01*
X268065Y266953D01*
X268027Y267067D01*
X268001Y267156D01*
X267989Y267182D01*
X267963Y267232D01*
X267925Y267296D01*
X267862Y267385D01*
X267773Y267474D01*
X267671Y267537D01*
X267544Y267588D01*
X267392Y267613D01*
D02*
G37*
%LPD*%
D10*
X665000Y258750D02*
G03*
X665000Y258750I-2500J0D01*
G01*
X815000Y95000D02*
X835000D01*
Y100000D01*
X675000Y95000D02*
X695000D01*
X675000D02*
Y100000D01*
X835000Y260000D02*
Y335000D01*
X675000D02*
X835000D01*
X675000Y260000D02*
Y335000D01*
X695000Y107400D02*
Y257400D01*
Y107400D02*
X815000D01*
Y257400D01*
X695000D02*
X815000D01*
X637610Y104590D02*
X640010D01*
X637610Y90990D02*
X640010D01*
X554170Y116910D02*
Y119310D01*
X540570Y116910D02*
Y119310D01*
X541450Y67020D02*
X640450D01*
Y9520D02*
Y67020D01*
X541450Y9520D02*
X640450D01*
X541450D02*
Y67020D01*
X418500Y9500D02*
Y67000D01*
Y9500D02*
X517500D01*
Y67000D01*
X418500D02*
X517500D01*
X441140Y219280D02*
Y222680D01*
X427540Y219280D02*
Y222680D01*
X456750Y131040D02*
Y134440D01*
X470350Y131040D02*
Y134440D01*
X370020Y219280D02*
Y222680D01*
X356420Y219280D02*
Y222680D01*
X578380Y177040D02*
Y183640D01*
X560530Y172340D02*
X567230D01*
X549380Y177040D02*
Y183640D01*
X127320Y221080D02*
X167320D01*
X127320Y170080D02*
X167320D01*
X128780Y108840D02*
Y124840D01*
X160780Y108840D02*
Y124840D01*
D11*
X214960Y29210D02*
G03*
X214960Y29210I-1250J0D01*
G01*
X77480Y211020D02*
G03*
X77480Y211020I-1250J0D01*
G01*
X668350Y25400D02*
G03*
X668350Y25400I-1250J0D01*
G01*
X647330Y302260D02*
G03*
X647330Y302260I-1250J0D01*
G01*
X877550Y275240D02*
G03*
X877550Y275240I-1250J0D01*
G01*
X25380Y120300D02*
G03*
X25380Y120300I-1250J0D01*
G01*
X339836Y79596D02*
G03*
X339836Y79596I-1250J0D01*
G01*
X397040Y338760D02*
G03*
X397040Y338760I-1250J0D01*
G01*
X561710Y297180D02*
G03*
X561710Y297180I-1250J0D01*
G01*
X740730Y65680D02*
G03*
X740730Y65680I-1250J0D01*
G01*
D12*
X649450Y33020D02*
G03*
X649450Y33020I-1000J0D01*
G01*
X526500Y33000D02*
G03*
X526500Y33000I-1000J0D01*
G01*
X208620Y142390D02*
G03*
X208620Y142390I-1000J0D01*
G01*
X575380Y204440D02*
G03*
X575380Y204440I-1000J0D01*
G01*
X103870Y220630D02*
G03*
X103870Y220630I-1000J0D01*
G01*
X155230Y141120D02*
G03*
X155230Y141120I-1000J0D01*
G01*
X218210Y15760D02*
X272010D01*
X218210D02*
Y42660D01*
X272010D01*
Y15760D02*
Y42660D01*
X-3020Y133370D02*
X4230D01*
X33730D02*
X46230D01*
X-3020D02*
Y224770D01*
X4230D01*
X33730D02*
X46230D01*
X595210Y92600D02*
X606210D01*
X725400Y11950D02*
Y38850D01*
X671600D02*
X725400D01*
X671600Y11950D02*
Y38850D01*
Y11950D02*
X725400D01*
X587780Y288810D02*
Y315710D01*
Y288810D02*
X641580D01*
Y315710D01*
X587780D02*
X641580D01*
X179340Y64170D02*
X181340D01*
X179340Y52670D02*
X181340D01*
X862850Y115340D02*
X889750D01*
Y270740D01*
X862850D02*
X889750D01*
X862850Y115340D02*
Y270740D01*
X10680Y62000D02*
X37580D01*
Y115800D01*
X10680D02*
X37580D01*
X10680Y62000D02*
Y115800D01*
X289336Y71846D02*
X363336D01*
Y14346D02*
Y48596D01*
Y67096D02*
Y71846D01*
X289336Y14346D02*
X363336D01*
X289336D02*
Y71846D01*
X346540Y331010D02*
X420540D01*
Y273510D02*
Y307760D01*
Y326260D02*
Y331010D01*
X346540Y273510D02*
X420540D01*
X346540D02*
Y331010D01*
X430960Y273680D02*
Y331180D01*
Y273680D02*
X554960D01*
Y331180D01*
X430960D02*
X554960D01*
X762480Y30930D02*
Y55430D01*
X764230Y13180D02*
X820730D01*
X822480Y30930D02*
Y55430D01*
X764230Y73180D02*
X820730D01*
X409841Y115789D02*
Y148371D01*
X433439Y115789D02*
Y148371D01*
X621880Y180340D02*
X632880D01*
X311420Y122590D02*
X313420D01*
X311420Y111090D02*
X313420D01*
X593940Y180340D02*
X604940D01*
X520280D02*
X531280D01*
X146401Y29189D02*
Y62251D01*
X122839Y29189D02*
Y62251D01*
X239030Y204124D02*
X241030D01*
X239030Y192624D02*
X241030D01*
X238920Y215992D02*
X240920D01*
X238920Y227492D02*
X240920D01*
X305650Y175260D02*
X316650D01*
X239000Y169250D02*
X241000D01*
X239000Y180750D02*
X241000D01*
X263241Y99157D02*
Y132219D01*
X239679Y99157D02*
Y132219D01*
D13*
X44920Y8170D02*
Y45170D01*
X8420D02*
X44920D01*
X8420Y8170D02*
Y45170D01*
Y8170D02*
X44920D01*
X890740D02*
Y45170D01*
X854240D02*
X890740D01*
X854240Y8170D02*
Y45170D01*
Y8170D02*
X890740D01*
X44920Y304080D02*
Y341080D01*
X8420D02*
X44920D01*
X8420Y304080D02*
Y341080D01*
Y304080D02*
X44920D01*
X890740D02*
Y341080D01*
X854240D02*
X890740D01*
X854240Y304080D02*
Y341080D01*
Y304080D02*
X890740D01*
X136398Y144188D02*
Y150960D01*
X134705Y152652D01*
X131320D01*
X129627Y150960D01*
Y144188D01*
X131320Y142496D01*
X134705D01*
X133012Y145881D02*
X136398Y142496D01*
X134705D02*
X136398Y144188D01*
X139784Y142496D02*
X143169D01*
X141476D01*
Y152652D01*
X139784Y150960D01*
X181528Y151636D02*
Y143172D01*
X183221Y141480D01*
X186606D01*
X188299Y143172D01*
Y151636D01*
X196763Y141480D02*
Y151636D01*
X191685Y146558D01*
X198456D01*
X164256Y237234D02*
Y228770D01*
X165949Y227078D01*
X169334D01*
X171027Y228770D01*
Y237234D01*
X174413Y235542D02*
X176106Y237234D01*
X179491D01*
X181184Y235542D01*
Y233849D01*
X179491Y232156D01*
X177798D01*
X179491D01*
X181184Y230463D01*
Y228770D01*
X179491Y227078D01*
X176106D01*
X174413Y228770D01*
X563036Y156208D02*
Y147744D01*
X564729Y146052D01*
X568114D01*
X569807Y147744D01*
Y156208D01*
X579964Y146052D02*
X573193D01*
X579964Y152823D01*
Y154516D01*
X578271Y156208D01*
X574886D01*
X573193Y154516D01*
X648549Y335278D02*
Y326814D01*
X650242Y325122D01*
X653627D01*
X655320Y326814D01*
Y335278D01*
X658706Y325122D02*
X662091D01*
X660398D01*
Y335278D01*
X658706Y333586D01*
X853442Y69426D02*
X851749Y71118D01*
X848363D01*
X846671Y69426D01*
Y67733D01*
X848363Y66040D01*
X851749D01*
X853442Y64347D01*
Y62654D01*
X851749Y60962D01*
X848363D01*
X846671Y62654D01*
X856827Y71118D02*
Y60962D01*
X860213Y64347D01*
X863598Y60962D01*
Y71118D01*
X866984Y60962D02*
X870369D01*
X868677D01*
Y71118D01*
X866984Y69426D01*
X423337Y243842D02*
Y253998D01*
X428415D01*
X430108Y252306D01*
Y248920D01*
X428415Y247227D01*
X423337D01*
X426722D02*
X430108Y243842D01*
X433494D02*
X436879D01*
X435186D01*
Y253998D01*
X433494Y252306D01*
X441958Y243842D02*
X445343D01*
X443650D01*
Y253998D01*
X441958Y252306D01*
X299724Y130304D02*
Y140460D01*
X304802D01*
X306495Y138768D01*
Y135382D01*
X304802Y133689D01*
X299724D01*
X303110D02*
X306495Y130304D01*
X309881D02*
X313266D01*
X311574D01*
Y140460D01*
X309881Y138768D01*
X318345D02*
X320038Y140460D01*
X323423D01*
X325116Y138768D01*
Y131996D01*
X323423Y130304D01*
X320038D01*
X318345Y131996D01*
Y138768D01*
X354756Y243842D02*
Y253998D01*
X359834D01*
X361527Y252306D01*
Y248920D01*
X359834Y247227D01*
X354756D01*
X358142D02*
X361527Y243842D01*
X364913Y245534D02*
X366606Y243842D01*
X369991D01*
X371684Y245534D01*
Y252306D01*
X369991Y253998D01*
X366606D01*
X364913Y252306D01*
Y250613D01*
X366606Y248920D01*
X371684D01*
X260856Y169922D02*
Y180078D01*
X265934D01*
X267627Y178386D01*
Y175000D01*
X265934Y173307D01*
X260856D01*
X264242D02*
X267627Y169922D01*
X271013Y178386D02*
X272706Y180078D01*
X276091D01*
X277784Y178386D01*
Y176693D01*
X276091Y175000D01*
X277784Y173307D01*
Y171614D01*
X276091Y169922D01*
X272706D01*
X271013Y171614D01*
Y173307D01*
X272706Y175000D01*
X271013Y176693D01*
Y178386D01*
X272706Y175000D02*
X276091D01*
X171876Y71122D02*
Y81278D01*
X176954D01*
X178647Y79586D01*
Y76200D01*
X176954Y74507D01*
X171876D01*
X175262D02*
X178647Y71122D01*
X182033Y81278D02*
X188804D01*
Y79586D01*
X182033Y72814D01*
Y71122D01*
X260776Y194566D02*
Y204722D01*
X265854D01*
X267547Y203030D01*
Y199644D01*
X265854Y197951D01*
X260776D01*
X264162D02*
X267547Y194566D01*
X277704Y204722D02*
X274318Y203030D01*
X270933Y199644D01*
Y196258D01*
X272626Y194566D01*
X276011D01*
X277704Y196258D01*
Y197951D01*
X276011Y199644D01*
X270933D01*
X260776Y216664D02*
Y226820D01*
X265854D01*
X267547Y225128D01*
Y221742D01*
X265854Y220049D01*
X260776D01*
X264162D02*
X267547Y216664D01*
X277704Y226820D02*
X270933D01*
Y221742D01*
X274318Y223435D01*
X276011D01*
X277704Y221742D01*
Y218356D01*
X276011Y216664D01*
X272626D01*
X270933Y218356D01*
X413176Y160022D02*
Y170178D01*
X418254D01*
X419947Y168486D01*
Y165100D01*
X418254Y163407D01*
X413176D01*
X416562D02*
X419947Y160022D01*
X428411D02*
Y170178D01*
X423333Y165100D01*
X430104D01*
X630346Y110492D02*
Y120648D01*
X635424D01*
X637117Y118956D01*
Y115570D01*
X635424Y113877D01*
X630346D01*
X633732D02*
X637117Y110492D01*
X640503Y118956D02*
X642196Y120648D01*
X645581D01*
X647274Y118956D01*
Y117263D01*
X645581Y115570D01*
X643888D01*
X645581D01*
X647274Y113877D01*
Y112184D01*
X645581Y110492D01*
X642196D01*
X640503Y112184D01*
X455086Y153672D02*
Y163828D01*
X460164D01*
X461857Y162136D01*
Y158750D01*
X460164Y157057D01*
X455086D01*
X458472D02*
X461857Y153672D01*
X472014D02*
X465243D01*
X472014Y160443D01*
Y162136D01*
X470321Y163828D01*
X466936D01*
X465243Y162136D01*
X540599Y138432D02*
Y148588D01*
X545677D01*
X547370Y146896D01*
Y143510D01*
X545677Y141817D01*
X540599D01*
X543984D02*
X547370Y138432D01*
X550756D02*
X554141D01*
X552448D01*
Y148588D01*
X550756Y146896D01*
X225638Y58418D02*
X222253D01*
X223945D01*
Y49954D01*
X222253Y48262D01*
X220560D01*
X218867Y49954D01*
X229024Y48262D02*
X232409D01*
X230716D01*
Y58418D01*
X229024Y56726D01*
X237488Y48262D02*
X240873D01*
X239180D01*
Y58418D01*
X237488Y56726D01*
X297751Y88644D02*
X294366D01*
X296059D01*
Y80180D01*
X294366Y78488D01*
X292673D01*
X290980Y80180D01*
X301137Y78488D02*
X304522D01*
X302830D01*
Y88644D01*
X301137Y86952D01*
X309601D02*
X311294Y88644D01*
X314679D01*
X316372Y86952D01*
Y80180D01*
X314679Y78488D01*
X311294D01*
X309601Y80180D01*
Y86952D01*
X568537Y327658D02*
X565152D01*
X566844D01*
Y319194D01*
X565152Y317502D01*
X563459D01*
X561766Y319194D01*
X571923D02*
X573616Y317502D01*
X577001D01*
X578694Y319194D01*
Y325966D01*
X577001Y327658D01*
X573616D01*
X571923Y325966D01*
Y324273D01*
X573616Y322580D01*
X578694D01*
X425307Y83078D02*
X421922D01*
X423614D01*
Y74614D01*
X421922Y72922D01*
X420229D01*
X418536Y74614D01*
X428693Y81386D02*
X430386Y83078D01*
X433771D01*
X435464Y81386D01*
Y79693D01*
X433771Y78000D01*
X435464Y76307D01*
Y74614D01*
X433771Y72922D01*
X430386D01*
X428693Y74614D01*
Y76307D01*
X430386Y78000D01*
X428693Y79693D01*
Y81386D01*
X430386Y78000D02*
X433771D01*
X61807Y243838D02*
X58422D01*
X60114D01*
Y235374D01*
X58422Y233682D01*
X56729D01*
X55036Y235374D01*
X65193Y243838D02*
X71964D01*
Y242146D01*
X65193Y235374D01*
Y233682D01*
X50377Y87628D02*
X46992D01*
X48684D01*
Y79164D01*
X46992Y77472D01*
X45299D01*
X43606Y79164D01*
X60534Y87628D02*
X57148Y85936D01*
X53763Y82550D01*
Y79164D01*
X55456Y77472D01*
X58841D01*
X60534Y79164D01*
Y80857D01*
X58841Y82550D01*
X53763D01*
X547977Y81758D02*
X544592D01*
X546284D01*
Y73294D01*
X544592Y71602D01*
X542899D01*
X541206Y73294D01*
X558134Y81758D02*
X551363D01*
Y76680D01*
X554748Y78373D01*
X556441D01*
X558134Y76680D01*
Y73294D01*
X556441Y71602D01*
X553056D01*
X551363Y73294D01*
X614257Y332738D02*
X610872D01*
X612564D01*
Y324274D01*
X610872Y322582D01*
X609179D01*
X607486Y324274D01*
X622721Y322582D02*
Y332738D01*
X617643Y327660D01*
X624414D01*
X676487Y53338D02*
X673102D01*
X674794D01*
Y44874D01*
X673102Y43182D01*
X671409D01*
X669716Y44874D01*
X679873Y51646D02*
X681566Y53338D01*
X684951D01*
X686644Y51646D01*
Y49953D01*
X684951Y48260D01*
X683258D01*
X684951D01*
X686644Y46567D01*
Y44874D01*
X684951Y43182D01*
X681566D01*
X679873Y44874D01*
X874607Y292098D02*
X871222D01*
X872914D01*
Y283634D01*
X871222Y281942D01*
X869529D01*
X867836Y283634D01*
X884764Y281942D02*
X877993D01*
X884764Y288713D01*
Y290406D01*
X883071Y292098D01*
X879686D01*
X877993Y290406D01*
X330200Y330198D02*
X326814D01*
X328507D01*
Y321734D01*
X326814Y320042D01*
X325122D01*
X323429Y321734D01*
X333586Y320042D02*
X336971D01*
X335278D01*
Y330198D01*
X333586Y328506D01*
X460166Y252728D02*
Y242572D01*
X465244D01*
X466937Y244264D01*
Y251036D01*
X465244Y252728D01*
X460166D01*
X477094D02*
X470323D01*
Y247650D01*
X473708Y249343D01*
X475401D01*
X477094Y247650D01*
Y244264D01*
X475401Y242572D01*
X472016D01*
X470323Y244264D01*
X390316Y252968D02*
Y242812D01*
X395394D01*
X397087Y244504D01*
Y251276D01*
X395394Y252968D01*
X390316D01*
X405551Y242812D02*
Y252968D01*
X400473Y247890D01*
X407244D01*
X86786Y85088D02*
Y74932D01*
X91864D01*
X93557Y76624D01*
Y83396D01*
X91864Y85088D01*
X86786D01*
X96943Y83396D02*
X98636Y85088D01*
X102021D01*
X103714Y83396D01*
Y81703D01*
X102021Y80010D01*
X100328D01*
X102021D01*
X103714Y78317D01*
Y76624D01*
X102021Y74932D01*
X98636D01*
X96943Y76624D01*
X85516Y129538D02*
Y119382D01*
X90594D01*
X92287Y121074D01*
Y127846D01*
X90594Y129538D01*
X85516D01*
X102444Y119382D02*
X95673D01*
X102444Y126153D01*
Y127846D01*
X100751Y129538D01*
X97366D01*
X95673Y127846D01*
X498733Y154094D02*
Y142098D01*
X504731D01*
X506730Y144097D01*
Y152095D01*
X504731Y154094D01*
X498733D01*
X510729Y142098D02*
X514727D01*
X512728D01*
Y154094D01*
X510729Y152095D01*
X310301Y208968D02*
X308608Y210661D01*
X305223D01*
X303530Y208968D01*
Y202197D01*
X305223Y200504D01*
X308608D01*
X310301Y202197D01*
X313687Y210661D02*
X320458D01*
Y208968D01*
X313687Y202197D01*
Y200504D01*
X249513Y152601D02*
X247820Y154294D01*
X244435D01*
X242742Y152601D01*
Y145830D01*
X244435Y144137D01*
X247820D01*
X249513Y145830D01*
X259670Y154294D02*
X256284Y152601D01*
X252899Y149216D01*
Y145830D01*
X254592Y144137D01*
X257977D01*
X259670Y145830D01*
Y147523D01*
X257977Y149216D01*
X252899D01*
X132419Y79840D02*
X130726Y81532D01*
X127341D01*
X125648Y79840D01*
Y73068D01*
X127341Y71376D01*
X130726D01*
X132419Y73068D01*
X142576Y81532D02*
X135805D01*
Y76454D01*
X139190Y78147D01*
X140883D01*
X142576Y76454D01*
Y73068D01*
X140883Y71376D01*
X137498D01*
X135805Y73068D01*
X599017Y121386D02*
X597324Y123078D01*
X593939D01*
X592246Y121386D01*
Y114614D01*
X593939Y112922D01*
X597324D01*
X599017Y114614D01*
X607481Y112922D02*
Y123078D01*
X602403Y118000D01*
X609174D01*
X597493Y210396D02*
X595800Y212088D01*
X592415D01*
X590722Y210396D01*
Y203624D01*
X592415Y201932D01*
X595800D01*
X597493Y203624D01*
X600879Y210396D02*
X602572Y212088D01*
X605957D01*
X607650Y210396D01*
Y208703D01*
X605957Y207010D01*
X604264D01*
X605957D01*
X607650Y205317D01*
Y203624D01*
X605957Y201932D01*
X602572D01*
X600879Y203624D01*
X625687Y209888D02*
X623994Y211580D01*
X620609D01*
X618916Y209888D01*
Y203116D01*
X620609Y201424D01*
X623994D01*
X625687Y203116D01*
X635844Y201424D02*
X629073D01*
X635844Y208195D01*
Y209888D01*
X634151Y211580D01*
X630766D01*
X629073Y209888D01*
X525526Y211158D02*
X523833Y212850D01*
X520448D01*
X518755Y211158D01*
Y204386D01*
X520448Y202694D01*
X523833D01*
X525526Y204386D01*
X528912Y202694D02*
X532297D01*
X530604D01*
Y212850D01*
X528912Y211158D01*
D14*
X409841Y148371D02*
Y152769D01*
X433439D01*
Y148371D02*
Y152769D01*
X409841Y111367D02*
Y115789D01*
Y111367D02*
X433439D01*
Y115789D01*
D15*
X146401Y24989D02*
Y29189D01*
X122839Y25049D02*
Y29189D01*
X122899Y24989D02*
X146401D01*
Y62251D02*
Y66391D01*
X122839Y62251D02*
Y66391D01*
X146401D01*
X263241Y94957D02*
Y99157D01*
X239679Y95017D02*
Y99157D01*
X239739Y94957D02*
X263241D01*
Y132219D02*
Y136359D01*
X239679Y132219D02*
Y136359D01*
X263241D01*
D16*
X468625Y188360D02*
D03*
X398761D02*
D03*
X506714Y89300D02*
D03*
D17*
X103746Y104143D02*
D03*
X103980Y59686D02*
D03*
M02*
