G04*
G04 #@! TF.GenerationSoftware,Altium Limited,Altium Designer,25.2.1 (25)*
G04*
G04 Layer_Color=2752767*
%FSLAX44Y44*%
%MOMM*%
G71*
G04*
G04 #@! TF.SameCoordinates,151459D2-9B86-48AD-89DC-2ABF3E981002*
G04*
G04*
G04 #@! TF.FilePolarity,Positive*
G04*
G01*
G75*
%ADD10C,0.1270*%
%ADD75C,0.1693*%
D10*
X26670Y21590D02*
X29210Y24130D01*
X31750D01*
X29210Y26670D01*
X31750Y29210D01*
X29210D01*
X26670Y31750D01*
X24130Y29210D01*
X21590D01*
X24130Y26670D01*
X21590Y24130D01*
X24130D01*
X26670Y21590D01*
X872490D02*
X875030Y24130D01*
X877570D01*
X875030Y26670D01*
X877570Y29210D01*
X875030D01*
X872490Y31750D01*
X869950Y29210D01*
X867410D01*
X869950Y26670D01*
X867410Y24130D01*
X869950D01*
X872490Y21590D01*
X26670Y317500D02*
X29210Y320040D01*
X31750D01*
X29210Y322580D01*
X31750Y325120D01*
X29210D01*
X26670Y327660D01*
X24130Y325120D01*
X21590D01*
X24130Y322580D01*
X21590Y320040D01*
X24130D01*
X26670Y317500D01*
X872490D02*
X875030Y320040D01*
X877570D01*
X875030Y322580D01*
X877570Y325120D01*
X875030D01*
X872490Y327660D01*
X869950Y325120D01*
X867410D01*
X869950Y322580D01*
X867410Y320040D01*
X869950D01*
X872490Y317500D01*
X232410Y24130D02*
X227330Y34290D01*
X237490D01*
X232410Y24130D01*
X257810D02*
X252730Y34290D01*
X262890D01*
X257810Y24130D01*
X16440Y219730D02*
Y217190D01*
X21520D01*
Y219730D01*
X24060D01*
Y224810D01*
X21520D01*
Y227350D01*
X16440D01*
Y224810D01*
X13900D01*
Y219730D01*
X16440D01*
Y133330D02*
Y130790D01*
X21520D01*
Y133330D01*
X24060D01*
Y138410D01*
X21520D01*
Y140950D01*
X16440D01*
Y138410D01*
X13900D01*
Y133330D01*
X16440D01*
X53900Y217190D02*
X56440Y222270D01*
X53900Y227350D01*
X58980Y224810D01*
X64060Y227350D01*
X61520Y222270D01*
X64060Y217190D01*
X58980Y219730D01*
X53900Y217190D01*
Y130790D02*
X56440Y135870D01*
X53900Y140950D01*
X58980Y138410D01*
X64060Y140950D01*
X61520Y135870D01*
X64060Y130790D01*
X58980Y133330D01*
X53900Y130790D01*
X711200Y20320D02*
X706120Y30480D01*
X716280D01*
X711200Y20320D01*
X685800D02*
X680720Y30480D01*
X690880D01*
X685800Y20320D01*
X601980Y297180D02*
X596900Y307340D01*
X607060D01*
X601980Y297180D01*
X627380D02*
X622300Y307340D01*
X632460D01*
X627380Y297180D01*
X560870Y27940D02*
Y38100D01*
X571030D01*
Y27940D01*
X560870D01*
X585870D02*
Y38100D01*
X596030D01*
Y27940D01*
X585870D01*
X610870D02*
Y38100D01*
X621030D01*
Y27940D01*
X610870D01*
X487920Y27920D02*
Y38080D01*
X498080D01*
Y27920D01*
X487920D01*
X462920D02*
Y38080D01*
X473080D01*
Y27920D01*
X462920D01*
X437920D02*
Y38080D01*
X448080D01*
Y27920D01*
X437920D01*
X876300Y124460D02*
X871220Y134620D01*
X881380D01*
X876300Y124460D01*
Y149860D02*
X871220Y160020D01*
X881380D01*
X876300Y149860D01*
Y200660D02*
X871220Y210820D01*
X881380D01*
X876300Y200660D01*
Y251460D02*
X871220Y261620D01*
X881380D01*
X876300Y251460D01*
Y226060D02*
X871220Y236220D01*
X881380D01*
X876300Y226060D01*
Y175260D02*
X871220Y185420D01*
X881380D01*
X876300Y175260D01*
X24130Y71120D02*
X19050Y81280D01*
X29210D01*
X24130Y71120D01*
Y96520D02*
X19050Y106680D01*
X29210D01*
X24130Y96520D01*
X333756Y32766D02*
Y42926D01*
X343916D01*
Y32766D01*
X333756D01*
X308756D02*
Y42926D01*
X318916D01*
Y32766D01*
X308756D01*
X390960Y291930D02*
Y302090D01*
X401120D01*
Y291930D01*
X390960D01*
X365960D02*
Y302090D01*
X376120D01*
Y291930D01*
X365960D01*
X525380Y292100D02*
X527920D01*
X530460Y294640D01*
X533000Y292100D01*
X535540D01*
Y294640D01*
X533000Y297180D01*
X535540Y299720D01*
Y302260D01*
X533000D01*
X530460Y299720D01*
X527920Y302260D01*
X525380D01*
Y299720D01*
X527920Y297180D01*
X525380Y294640D01*
Y292100D01*
X500380D02*
X502920D01*
X505460Y294640D01*
X508000Y292100D01*
X510540D01*
Y294640D01*
X508000Y297180D01*
X510540Y299720D01*
Y302260D01*
X508000D01*
X505460Y299720D01*
X502920Y302260D01*
X500380D01*
Y299720D01*
X502920Y297180D01*
X500380Y294640D01*
Y292100D01*
X475380D02*
X477920D01*
X480460Y294640D01*
X483000Y292100D01*
X485540D01*
Y294640D01*
X483000Y297180D01*
X485540Y299720D01*
Y302260D01*
X483000D01*
X480460Y299720D01*
X477920Y302260D01*
X475380D01*
Y299720D01*
X477920Y297180D01*
X475380Y294640D01*
Y292100D01*
X450380D02*
X452920D01*
X455460Y294640D01*
X458000Y292100D01*
X460540D01*
Y294640D01*
X458000Y297180D01*
X460540Y299720D01*
Y302260D01*
X458000D01*
X455460Y299720D01*
X452920Y302260D01*
X450380D01*
Y299720D01*
X452920Y297180D01*
X450380Y294640D01*
Y292100D01*
X211576Y175260D02*
X216656Y180340D01*
X221736Y175260D01*
X216656Y170180D01*
X211576Y175260D01*
X306070Y151638D02*
X311150Y156718D01*
X316230Y151638D01*
X311150Y146558D01*
X306070Y151638D01*
X445262Y185420D02*
X450342Y190500D01*
X455422Y185420D01*
X450342Y180340D01*
X445262Y185420D01*
X117348Y137414D02*
X122428Y142494D01*
X127508Y137414D01*
X122428Y132334D01*
X117348Y137414D01*
X202692Y91186D02*
X207772Y96266D01*
X212852Y91186D01*
X207772Y86106D01*
X202692Y91186D01*
X161544Y129032D02*
X166624Y134112D01*
X171704Y129032D01*
X166624Y123952D01*
X161544Y129032D01*
X657860Y109982D02*
X662940Y115062D01*
X668020Y109982D01*
X662940Y104902D01*
X657860Y109982D01*
X622300Y157988D02*
X627380Y163068D01*
X632460Y157988D01*
X627380Y152908D01*
X622300Y157988D01*
X85090Y188468D02*
X90170Y193548D01*
X95250Y188468D01*
X90170Y183388D01*
X85090Y188468D01*
X99822Y201930D02*
X104902Y207010D01*
X109982Y201930D01*
X104902Y196850D01*
X99822Y201930D01*
X194310Y58420D02*
X199390Y63500D01*
X204470Y58420D01*
X199390Y53340D01*
X194310Y58420D01*
X101854Y45466D02*
X106934Y50546D01*
X112014Y45466D01*
X106934Y40386D01*
X101854Y45466D01*
X211496Y198374D02*
X216576Y203454D01*
X221656Y198374D01*
X216576Y193294D01*
X211496Y198374D01*
X244094Y236474D02*
X249174Y241554D01*
X254254Y236474D01*
X249174Y231394D01*
X244094Y236474D01*
X185928Y226822D02*
X191008Y231902D01*
X196088Y226822D01*
X191008Y221742D01*
X185928Y226822D01*
X100330Y91201D02*
X105410Y96281D01*
X110490Y91201D01*
X105410Y86121D01*
X100330Y91201D01*
X610616Y94488D02*
X615696Y99568D01*
X620776Y94488D01*
X615696Y89408D01*
X610616Y94488D01*
X532892Y160782D02*
X537972Y165862D01*
X543052Y160782D01*
X537972Y155702D01*
X532892Y160782D01*
X519176Y99060D02*
X524256Y104140D01*
X529336Y99060D01*
X524256Y93980D01*
X519176Y99060D01*
X559054Y208534D02*
X564134Y213614D01*
X569214Y208534D01*
X564134Y203454D01*
X559054Y208534D01*
X443230Y211582D02*
X448310Y216662D01*
X453390Y211582D01*
X448310Y206502D01*
X443230Y211582D01*
X557200Y127686D02*
X562280Y132766D01*
X567360Y127686D01*
X562280Y122606D01*
X557200Y127686D01*
X654783Y209775D02*
X659863Y214855D01*
X664943Y209775D01*
X659863Y204695D01*
X654783Y209775D01*
X504698Y189484D02*
X509778Y194564D01*
X514858Y189484D01*
X509778Y184404D01*
X504698Y189484D01*
X117490Y162926D02*
X122570Y168006D01*
X127650Y162926D01*
X122570Y157846D01*
X117490Y162926D01*
X434086Y121412D02*
X439166Y126492D01*
X444246Y121412D01*
X439166Y116332D01*
X434086Y121412D01*
X699516Y165100D02*
X704596Y170180D01*
X709676Y165100D01*
X704596Y160020D01*
X699516Y165100D01*
X698754Y149606D02*
X703834Y154686D01*
X708914Y149606D01*
X703834Y144526D01*
X698754Y149606D01*
Y129540D02*
X703834Y134620D01*
X708914Y129540D01*
X703834Y124460D01*
X698754Y129540D01*
X802640Y130048D02*
X807720Y135128D01*
X812800Y130048D01*
X807720Y124968D01*
X802640Y130048D01*
X802386Y209804D02*
X807466Y214884D01*
X812546Y209804D01*
X807466Y204724D01*
X802386Y209804D01*
X802132Y189992D02*
X807212Y195072D01*
X812292Y189992D01*
X807212Y184912D01*
X802132Y189992D01*
X802640Y170180D02*
X807720Y175260D01*
X812800Y170180D01*
X807720Y165100D01*
X802640Y170180D01*
D75*
X359916Y57846D02*
G03*
X359916Y57846I-5080J0D01*
G01*
X417120Y317010D02*
G03*
X417120Y317010I-5080J0D01*
G01*
M02*
