G04*
G04 #@! TF.GenerationSoftware,Altium Limited,Altium Designer,25.2.1 (25)*
G04*
G04 Layer_Color=8421504*
%FSLAX44Y44*%
%MOMM*%
G71*
G04*
G04 #@! TF.SameCoordinates,151459D2-9B86-48AD-89DC-2ABF3E981002*
G04*
G04*
G04 #@! TF.FilePolarity,Positive*
G04*
G01*
G75*
%ADD18R,1.1000X1.7000*%
%ADD19R,2.0000X1.2000*%
%ADD20R,1.1500X0.6000*%
%ADD21R,1.1500X0.3000*%
%ADD22R,1.4500X1.1500*%
%ADD23R,1.0100X1.3800*%
%ADD24R,1.3800X1.0100*%
%ADD25R,1.0000X1.3500*%
%ADD26R,0.5900X1.2100*%
%ADD27R,1.5500X1.3000*%
%ADD28R,1.3800X0.9200*%
%ADD29R,1.6000X1.4000*%
%ADD30R,1.5098X1.3061*%
G04:AMPARAMS|DCode=31|XSize=1.21mm|YSize=0.59mm|CornerRadius=0.1475mm|HoleSize=0mm|Usage=FLASHONLY|Rotation=270.000|XOffset=0mm|YOffset=0mm|HoleType=Round|Shape=RoundedRectangle|*
%AMROUNDEDRECTD31*
21,1,1.2100,0.2950,0,0,270.0*
21,1,0.9150,0.5900,0,0,270.0*
1,1,0.2950,-0.1475,-0.4575*
1,1,0.2950,-0.1475,0.4575*
1,1,0.2950,0.1475,0.4575*
1,1,0.2950,0.1475,-0.4575*
%
%ADD31ROUNDEDRECTD31*%
%ADD32R,1.5562X1.5046*%
G04:AMPARAMS|DCode=33|XSize=1.97mm|YSize=0.6mm|CornerRadius=0.075mm|HoleSize=0mm|Usage=FLASHONLY|Rotation=0.000|XOffset=0mm|YOffset=0mm|HoleType=Round|Shape=RoundedRectangle|*
%AMROUNDEDRECTD33*
21,1,1.9700,0.4500,0,0,0.0*
21,1,1.8200,0.6000,0,0,0.0*
1,1,0.1500,0.9100,-0.2250*
1,1,0.1500,-0.9100,-0.2250*
1,1,0.1500,-0.9100,0.2250*
1,1,0.1500,0.9100,0.2250*
%
%ADD33ROUNDEDRECTD33*%
%ADD34R,1.4000X1.6000*%
G36*
X153770Y187380D02*
X140870D01*
Y203780D01*
X153770D01*
Y187380D01*
D02*
G37*
D18*
X805000Y95000D02*
D03*
X785000D02*
D03*
X765000D02*
D03*
X745000D02*
D03*
X725000D02*
D03*
X705000D02*
D03*
D19*
X830000Y250000D02*
D03*
Y230000D02*
D03*
Y210000D02*
D03*
Y190000D02*
D03*
Y170000D02*
D03*
Y150000D02*
D03*
Y130000D02*
D03*
Y110000D02*
D03*
X680000D02*
D03*
Y130000D02*
D03*
Y150000D02*
D03*
Y170000D02*
D03*
Y190000D02*
D03*
Y210000D02*
D03*
Y230000D02*
D03*
Y250000D02*
D03*
D20*
X64730Y147070D02*
D03*
Y211070D02*
D03*
Y203070D02*
D03*
Y155070D02*
D03*
D21*
Y161570D02*
D03*
Y166570D02*
D03*
Y171570D02*
D03*
Y176570D02*
D03*
Y181570D02*
D03*
Y186570D02*
D03*
Y191570D02*
D03*
Y196570D02*
D03*
D22*
X600710Y101600D02*
D03*
Y83600D02*
D03*
X627380Y171340D02*
D03*
Y189340D02*
D03*
X599440Y171340D02*
D03*
Y189340D02*
D03*
X525780Y171340D02*
D03*
Y189340D02*
D03*
X311150Y184260D02*
D03*
Y166260D02*
D03*
D23*
X629310Y97790D02*
D03*
X648310D02*
D03*
D24*
X547370Y127610D02*
D03*
Y108610D02*
D03*
D25*
X171340Y58420D02*
D03*
X189340D02*
D03*
X303420Y116840D02*
D03*
X321420D02*
D03*
X231030Y198374D02*
D03*
X249030D02*
D03*
X248920Y221742D02*
D03*
X230920D02*
D03*
X249000Y175000D02*
D03*
X231000D02*
D03*
D26*
X207620Y129390D02*
D03*
X198120D02*
D03*
X188620D02*
D03*
Y104290D02*
D03*
X207620D02*
D03*
X198120D02*
D03*
D27*
X832230Y20680D02*
D03*
X752730D02*
D03*
X832230Y65680D02*
D03*
X752730D02*
D03*
D28*
X434340Y230530D02*
D03*
Y211430D02*
D03*
X463550Y123190D02*
D03*
Y142290D02*
D03*
X363220Y230530D02*
D03*
Y211430D02*
D03*
D29*
X468630Y198360D02*
D03*
Y228360D02*
D03*
X398780Y198360D02*
D03*
Y228360D02*
D03*
X506730Y129300D02*
D03*
Y99300D02*
D03*
D30*
X421640Y141841D02*
D03*
Y122319D02*
D03*
D31*
X573380Y192890D02*
D03*
X563880D02*
D03*
X554380D02*
D03*
Y167790D02*
D03*
X573380D02*
D03*
X135280Y104290D02*
D03*
X144780D02*
D03*
X154280D02*
D03*
X135280Y129390D02*
D03*
X144780D02*
D03*
X154280D02*
D03*
D32*
X134620Y36712D02*
D03*
Y54728D02*
D03*
X251460Y106680D02*
D03*
Y124696D02*
D03*
D33*
X122570Y214630D02*
D03*
Y201930D02*
D03*
Y189230D02*
D03*
Y176530D02*
D03*
X172070D02*
D03*
Y189230D02*
D03*
Y201930D02*
D03*
Y214630D02*
D03*
D34*
X63740Y104140D02*
D03*
X93740D02*
D03*
X63980Y59690D02*
D03*
X93980D02*
D03*
M02*
