G04*
G04 #@! TF.GenerationSoftware,Altium Limited,Altium Designer,25.2.1 (25)*
G04*
G04 Layer_Color=32768*
%FSLAX44Y44*%
%MOMM*%
G71*
G04*
G04 #@! TF.SameCoordinates,151459D2-9B86-48AD-89DC-2ABF3E981002*
G04*
G04*
G04 #@! TF.FilePolarity,Positive*
G04*
G01*
G75*
%ADD12C,0.2000*%
%ADD70C,0.0500*%
D12*
X71480Y129870D02*
Y228270D01*
X-4020Y129870D02*
X71480D01*
X-4020D02*
Y228270D01*
X71480D01*
X288336Y72846D02*
X364336D01*
Y13346D02*
Y72846D01*
X288336Y13346D02*
X364336D01*
X288336D02*
Y72846D01*
X345540Y332010D02*
X421540D01*
Y272510D02*
Y332010D01*
X345540Y272510D02*
X421540D01*
X345540D02*
Y332010D01*
X429960Y272680D02*
Y332180D01*
Y272680D02*
X555960D01*
Y332180D01*
X429960D02*
X555960D01*
X743980Y12180D02*
Y74180D01*
Y12180D02*
X840980D01*
Y74180D01*
X743980D02*
X840980D01*
X409091Y110789D02*
X434189D01*
Y153371D01*
X409091D02*
X434189D01*
X409091Y110789D02*
Y153371D01*
X121839Y67251D02*
X147401D01*
X121839Y24189D02*
Y67251D01*
Y24189D02*
X147401D01*
Y67251D01*
X238679Y137219D02*
X264241D01*
X238679Y94157D02*
Y137219D01*
Y94157D02*
X264241D01*
Y137219D01*
D70*
X216210Y13760D02*
Y44660D01*
Y13760D02*
X274010D01*
Y44660D01*
X216210D02*
X274010D01*
X669600Y40850D02*
X727400D01*
Y9950D02*
Y40850D01*
X669600Y9950D02*
X727400D01*
X669600D02*
Y40850D01*
X585780Y286810D02*
X643580D01*
X585780D02*
Y317710D01*
X643580D01*
Y286810D02*
Y317710D01*
X891750Y113340D02*
Y272740D01*
X860850Y113340D02*
X891750D01*
X860850D02*
Y272740D01*
X891750D01*
X39580Y60000D02*
Y117800D01*
X8680Y60000D02*
X39580D01*
X8680D02*
Y117800D01*
X39580D01*
X458130Y189360D02*
X479130D01*
Y237360D01*
X458130D02*
X479130D01*
X458130Y189360D02*
Y237360D01*
X388280Y189360D02*
X409280D01*
Y237360D01*
X388280D02*
X409280D01*
X388280Y189360D02*
Y237360D01*
X496230Y90300D02*
Y138300D01*
X517230D01*
Y90300D02*
Y138300D01*
X496230Y90300D02*
X517230D01*
X54740Y93640D02*
X102740D01*
X54740D02*
Y114640D01*
X102740D01*
Y93640D02*
Y114640D01*
X54980Y49190D02*
X102980D01*
X54980D02*
Y70190D01*
X102980D01*
Y49190D02*
Y70190D01*
M02*
